<?xml version="1.0" encoding="utf-8"?>
<!-- Generator: Adobe Illustrator 27.5.0, SVG Export Plug-In . SVG Version: 6.00 Build 0)  -->
<svg version="1.1" xmlns="http://www.w3.org/2000/svg" xmlns:xlink="http://www.w3.org/1999/xlink" x="0px" y="0px"
	 viewBox="0 0 750 500" style="enable-background:new 0 0 750 500;" xml:space="preserve">
<g id="Background_Complete">
	<g>
		<g>
			<g>
				<g>
					<rect x="24.096" y="79.595" style="fill:#FFFFFF;" width="152.297" height="101.972"/>
				</g>
			</g>
			<g>
				<g>
					<g>
						<path style="fill:#E0E0E0;" d="M176.393,181.567c0,0-0.016-0.638-0.024-1.855c-0.005-1.225-0.014-3.027-0.024-5.38
							c-0.013-4.72-0.032-11.643-0.055-20.508c-0.027-17.716-0.067-43.182-0.115-74.229l0.218,0.218
							c-41.966,0.015-94.907,0.034-152.285,0.055h-0.012l0.273-0.273c-0.008,36.328-0.016,70.873-0.023,101.972l-0.25-0.25
							c44.833,0.05,82.874,0.093,109.72,0.123c13.434,0.029,24.063,0.052,31.347,0.067c3.637,0.013,6.436,0.023,8.338,0.03
							c0.942,0.006,1.659,0.011,2.153,0.015C176.139,181.557,176.393,181.567,176.393,181.567s-0.234,0.01-0.71,0.015
							c-0.487,0.003-1.195,0.008-2.125,0.015c-1.891,0.007-4.673,0.017-8.288,0.03c-7.27,0.016-17.881,0.038-31.29,0.067
							c-26.886,0.03-64.984,0.073-109.884,0.123l-0.25,0v-0.25c-0.007-31.099-0.015-65.644-0.023-101.972l0-0.273h0.273h0.012
							c57.378,0.021,110.319,0.04,152.285,0.055l0.218,0l0,0.218c-0.048,31.103-0.087,56.615-0.115,74.364
							c-0.024,8.844-0.043,15.751-0.056,20.459c-0.011,2.336-0.019,4.123-0.024,5.339
							C176.408,180.96,176.393,181.567,176.393,181.567z"/>
					</g>
				</g>
			</g>
		</g>
		<g>
			<g>
				<g>
					<path style="fill:#E0E0E0;" d="M24.096,88.695c0-0.151,34.067-0.273,76.082-0.273c42.029,0,76.089,0.122,76.089,0.273
						c0,0.151-34.06,0.273-76.089,0.273C58.163,88.967,24.096,88.845,24.096,88.695z"/>
				</g>
			</g>
		</g>
		<g>
			<g style="opacity:0.3;">
				<g>
					<path style="fill:#E0E0E0;" d="M30.104,84.104c0,0.674-0.546,1.221-1.221,1.221c-0.674,0-1.221-0.546-1.221-1.221
						c0-0.674,0.547-1.22,1.221-1.22C29.558,82.883,30.104,83.43,30.104,84.104z"/>
				</g>
			</g>
			<g style="opacity:0.3;">
				<g>
					<path style="fill:#E0E0E0;" d="M34.287,84.104c0,0.674-0.547,1.221-1.221,1.221s-1.221-0.546-1.221-1.221
						c0-0.674,0.547-1.22,1.221-1.22S34.287,83.43,34.287,84.104z"/>
				</g>
			</g>
			<g style="opacity:0.3;">
				<g>
					<path style="fill:#E0E0E0;" d="M38.409,84.104c0,0.674-0.547,1.221-1.22,1.221c-0.674,0-1.221-0.546-1.221-1.221
						c0-0.674,0.547-1.22,1.221-1.22C37.863,82.883,38.409,83.43,38.409,84.104z"/>
				</g>
			</g>
		</g>
		<g>
			<g>
				<rect x="37.189" y="99.329" style="fill:#E0E0E0;" width="40.625" height="40.625"/>
			</g>
		</g>
		<g>
			<g>
				<g>
					<path style="fill:#E0E0E0;" d="M155.508,110.812c0,0.151-15.844,0.273-35.385,0.273c-19.547,0-35.388-0.122-35.388-0.273
						c0-0.151,15.841-0.273,35.388-0.273C139.663,110.538,155.508,110.661,155.508,110.812z"/>
				</g>
			</g>
		</g>
		<g>
			<g>
				<g>
					<path style="fill:#E0E0E0;" d="M155.508,118.361c0,0.151-15.844,0.273-35.385,0.273c-19.547,0-35.388-0.122-35.388-0.273
						c0-0.151,15.841-0.273,35.388-0.273C139.663,118.088,155.508,118.21,155.508,118.361z"/>
				</g>
			</g>
		</g>
		<g>
			<g>
				<g>
					<path style="fill:#E0E0E0;" d="M155.508,125.91c0,0.151-15.844,0.273-35.385,0.273c-19.547,0-35.388-0.122-35.388-0.273
						c0-0.151,15.841-0.273,35.388-0.273C139.663,125.637,155.508,125.759,155.508,125.91z"/>
				</g>
			</g>
		</g>
		<g>
			<g>
				<g>
					<path style="fill:#E0E0E0;" d="M126.563,133.46c0,0.038-0.585,0.074-1.644,0.106c-1.156,0.022-2.664,0.051-4.482,0.087
						c-3.785,0.049-9.013,0.08-14.787,0.08c-5.776,0-11.005-0.031-14.79-0.08c-1.818-0.035-3.326-0.064-4.482-0.087
						c-1.058-0.033-1.643-0.069-1.643-0.106c0-0.038,0.585-0.073,1.643-0.106c1.156-0.022,2.664-0.051,4.482-0.087
						c3.785-0.049,9.013-0.08,14.79-0.08c5.774,0,11.003,0.03,14.787,0.08c1.818,0.035,3.326,0.064,4.482,0.087
						C125.977,133.386,126.563,133.422,126.563,133.46z"/>
				</g>
			</g>
		</g>
		<g>
			<g>
				<rect x="39.731" y="153.651" style="fill:#E0E0E0;" width="19.092" height="19.092"/>
			</g>
		</g>
		<g>
			<g>
				<rect x="74.355" y="153.651" style="fill:#E0E0E0;" width="19.092" height="19.092"/>
			</g>
		</g>
		<g>
			<g>
				<rect x="108.978" y="153.651" style="fill:#E0E0E0;" width="19.092" height="19.092"/>
			</g>
		</g>
		<g>
			<g>
				<rect x="143.602" y="153.651" style="fill:#E0E0E0;" width="19.092" height="19.092"/>
			</g>
		</g>
	</g>
	<g>
		<g>
			<g>
				<g>
					<rect x="198.866" y="30.043" style="fill:#FFFFFF;" width="131.189" height="53.287"/>
				</g>
			</g>
			<g>
				<g>
					<g>
						<path style="fill:#E0E0E0;" d="M330.055,83.33c0,0-0.01-0.327-0.015-0.952c-0.004-0.631-0.009-1.555-0.016-2.765
							c-0.008-2.431-0.021-6.003-0.036-10.605c-0.019-9.197-0.046-22.501-0.079-38.966l0.146,0.146
							c-33.373,0.016-79.828,0.038-131.18,0.062h-0.009l0.208-0.208c-0.003,18.66-0.006,36.673-0.009,53.287l-0.199-0.199
							c38.013,0.038,70.783,0.071,94.06,0.094c11.648,0.024,20.918,0.042,27.286,0.055c3.181,0.011,5.634,0.02,7.303,0.025
							c0.827,0.005,1.457,0.009,1.891,0.012C329.832,83.322,330.055,83.33,330.055,83.33s-0.207,0.008-0.625,0.012
							c-0.428,0.003-1.051,0.007-1.867,0.012c-1.659,0.006-4.099,0.014-7.261,0.025c-6.358,0.013-15.612,0.032-27.241,0.055
							c-23.311,0.023-56.128,0.056-94.195,0.094l-0.199,0V83.33c-0.003-16.614-0.006-34.626-0.009-53.287v-0.208h0.208h0.009
							c51.353,0.024,97.808,0.046,131.18,0.062l0.146,0l0,0.146c-0.033,16.502-0.06,29.836-0.079,39.054
							c-0.016,4.587-0.028,8.148-0.036,10.572c-0.007,1.198-0.012,2.113-0.016,2.738C330.065,83.022,330.055,83.33,330.055,83.33z"
							/>
					</g>
				</g>
			</g>
		</g>
		<g>
			<g>
				<g>
					<path style="fill:#E0E0E0;" d="M198.997,37.229c0-0.115,29.324-0.208,65.487-0.208c36.177,0,65.494,0.093,65.494,0.208
						c0,0.115-29.317,0.208-65.494,0.208C228.321,37.437,198.997,37.344,198.997,37.229z"/>
				</g>
			</g>
		</g>
		<g>
			<g style="opacity:0.3;">
				<g>
					<path style="fill:#EBEBEB;" d="M204.489,34.015c0,0.526-0.426,0.952-0.952,0.952c-0.526,0-0.952-0.426-0.952-0.952
						c0-0.526,0.426-0.952,0.952-0.952C204.063,33.063,204.489,33.489,204.489,34.015z"/>
				</g>
			</g>
			<g style="opacity:0.3;">
				<g>
					<path style="fill:#EBEBEB;" d="M207.752,34.015c0,0.526-0.426,0.952-0.952,0.952c-0.526,0-0.952-0.426-0.952-0.952
						c0-0.526,0.426-0.952,0.952-0.952C207.326,33.063,207.752,33.489,207.752,34.015z"/>
				</g>
			</g>
			<g style="opacity:0.3;">
				<g>
					<circle style="fill:#EBEBEB;" cx="210.015" cy="34.015" r="0.952"/>
				</g>
			</g>
		</g>
		<g>
			<g>
				<rect x="210.015" y="45.89" style="fill:#E0E0E0;" width="31.687" height="31.687"/>
			</g>
		</g>
		<g>
			<g>
				<g>
					<g>
						<path style="fill:#E0E0E0;" d="M320.978,54.382c0,0.115-16.306,0.208-36.416,0.208c-20.117,0-36.419-0.093-36.419-0.208
							s16.303-0.208,36.419-0.208C304.672,54.174,320.978,54.267,320.978,54.382z"/>
					</g>
				</g>
			</g>
			<g>
				<g>
					<g>
						<path style="fill:#E0E0E0;" d="M320.978,60.837c0,0.115-16.306,0.208-36.416,0.208c-20.117,0-36.419-0.093-36.419-0.208
							c0-0.115,16.303-0.208,36.419-0.208C304.672,60.629,320.978,60.722,320.978,60.837z"/>
					</g>
				</g>
			</g>
			<g>
				<g>
					<g>
						<path style="fill:#E0E0E0;" d="M295.03,67.292c0,0.014-0.164,0.028-0.476,0.042c-0.357,0.01-0.81,0.023-1.366,0.039
							c-1.242,0.016-2.944,0.039-5.024,0.066c-4.292,0.016-10.128,0.037-16.576,0.061c-6.45-0.024-12.287-0.045-16.578-0.061
							c-2.08-0.027-3.782-0.05-5.024-0.066c-0.556-0.016-1.009-0.029-1.366-0.039c-0.312-0.013-0.476-0.028-0.476-0.042
							c0-0.014,0.164-0.028,0.476-0.042c0.357-0.01,0.81-0.023,1.366-0.039c1.242-0.016,2.944-0.039,5.024-0.066
							c4.292-0.016,10.128-0.037,16.578-0.061c6.448,0.024,12.284,0.045,16.576,0.061c2.08,0.027,3.783,0.05,5.024,0.066
							c0.556,0.016,1.009,0.029,1.366,0.039C294.866,67.264,295.03,67.278,295.03,67.292z"/>
					</g>
				</g>
			</g>
		</g>
	</g>
	<g>
		<g>
			<g>
				<g>
					<path style="fill:#E0E0E0;" d="M684.02,101.158c-0.024-0.025,0.242-0.324,0.743-0.844c0.584-0.587,1.305-1.311,2.156-2.166
						c1.836-1.813,4.395-4.293,7.243-7.01l0.065-0.062l0.002,0.366c-2.87-2.666-5.446-5.097-7.292-6.873
						c-0.856-0.838-1.581-1.547-2.169-2.123c-0.504-0.509-0.772-0.803-0.749-0.828c0.023-0.025,0.336,0.22,0.88,0.685
						c0.617,0.544,1.378,1.214,2.277,2.006c1.908,1.71,4.522,4.099,7.393,6.765l0.196,0.182l-0.193,0.185l-0.065,0.062
						c-2.848,2.716-5.446,5.156-7.344,6.903c-0.895,0.81-1.652,1.495-2.266,2.051C684.355,100.932,684.044,101.183,684.02,101.158z"
						/>
				</g>
			</g>
		</g>
		<g>
			<g>
				<g>
					<path style="fill:#E0E0E0;" d="M661.87,81.618c0.024,0.025-0.242,0.324-0.744,0.844c-0.584,0.587-1.305,1.311-2.156,2.166
						c-1.836,1.813-4.395,4.293-7.243,7.01l-0.065,0.062l-0.002-0.366c2.87,2.666,5.446,5.096,7.292,6.873
						c0.856,0.838,1.581,1.547,2.169,2.123c0.504,0.509,0.772,0.803,0.749,0.828c-0.023,0.025-0.336-0.22-0.88-0.685
						c-0.617-0.544-1.378-1.214-2.276-2.006c-1.908-1.71-4.522-4.099-7.393-6.764l-0.196-0.182l0.194-0.185l0.065-0.062
						c2.848-2.716,5.446-5.156,7.344-6.903c0.895-0.81,1.652-1.495,2.266-2.051C661.535,81.844,661.847,81.593,661.87,81.618z"/>
				</g>
			</g>
		</g>
		<g>
			<g>
				<g>
					<path style="fill:#E0E0E0;" d="M667.556,105.76c-0.13-0.049,2.196-6.584,5.192-14.595c2.998-8.014,5.532-14.469,5.661-14.42
						c0.129,0.049-2.195,6.583-5.193,14.597C670.22,99.353,667.685,105.809,667.556,105.76z"/>
				</g>
			</g>
		</g>
		<g>
			<g>
				<g>
					<path style="fill:#E0E0E0;" d="M709.19,119.743c0,0-0.015-0.38-0.023-1.093c-0.006-0.728-0.013-1.778-0.024-3.144
						c-0.012-2.76-0.031-6.782-0.054-11.907c-0.026-10.251-0.063-24.9-0.108-42.563l0.208,0.209
						c-20.609,0.012-45.393,0.026-72.043,0.042h-0.006l0.25-0.251c-0.01,21.222-0.019,41.264-0.027,58.706l-0.223-0.224
						c21.391,0.046,39.374,0.085,52.026,0.112c6.327,0.026,11.318,0.046,14.746,0.06c1.701,0.012,3.011,0.021,3.914,0.027
						c0.435,0.006,0.77,0.01,1.012,0.013C709.068,119.735,709.19,119.743,709.19,119.743s-0.105,0.009-0.325,0.013
						c-0.237,0.003-0.563,0.007-0.987,0.013c-0.893,0.006-2.188,0.015-3.87,0.027c-3.417,0.014-8.391,0.034-14.696,0.06
						c-12.687,0.027-30.72,0.066-52.17,0.112l-0.223,0l0-0.225c-0.008-17.442-0.017-37.484-0.027-58.706v-0.251h0.25h0.006
						c26.65,0.015,51.434,0.03,72.043,0.042l0.209,0l-0.001,0.209c-0.045,17.717-0.082,32.412-0.108,42.695
						c-0.023,5.104-0.041,9.11-0.054,11.86c-0.01,1.349-0.018,2.385-0.024,3.104C709.206,119.395,709.19,119.743,709.19,119.743z"/>
				</g>
			</g>
		</g>
		<g>
			<g>
				<g>
					<path style="fill:#E0E0E0;" d="M709.755,69.748c0,0.139-16.264,0.251-36.321,0.251c-20.065,0-36.325-0.113-36.325-0.251
						c0-0.139,16.26-0.251,36.325-0.251C693.491,69.496,709.755,69.609,709.755,69.748z"/>
				</g>
			</g>
		</g>
		<g>
			<g>
				<g>
					<path style="fill:#E0E0E0;" d="M643.021,65.464c0,0.538-0.434,0.974-0.97,0.974c-0.536,0-0.97-0.436-0.97-0.974
						c0-0.538,0.434-0.974,0.97-0.974C642.587,64.49,643.021,64.926,643.021,65.464z"/>
				</g>
			</g>
			<g>
				<g>
					<path style="fill:#E0E0E0;" d="M646.557,65.464c0,0.538-0.434,0.974-0.97,0.974c-0.536,0-0.97-0.436-0.97-0.974
						c0-0.538,0.434-0.974,0.97-0.974C646.123,64.49,646.557,64.926,646.557,65.464z"/>
				</g>
			</g>
			<g>
				<g>
					<path style="fill:#E0E0E0;" d="M650.093,65.464c0,0.538-0.434,0.974-0.97,0.974c-0.536,0-0.97-0.436-0.97-0.974
						c0-0.538,0.434-0.974,0.97-0.974C649.659,64.49,650.093,64.926,650.093,65.464z"/>
				</g>
			</g>
		</g>
	</g>
	<g>
		<g>
			<g>
				<g>
					<path style="fill:#EBEBEB;" d="M692.59,377.9c4.163-2.148,9.066-2.427,13.688-1.663c2.483,0.41,5.072,1.153,6.762,3.019
						c1.69,1.865,2.01,5.148,0.07,6.75c-1.155,0.954-2.766,1.099-4.263,1.082c-3.618-0.042-7.633-0.679-10.524,1.498
						c-1.649,1.242-2.747,3.307-4.719,3.918c-1.929,0.598-4.106-0.541-5.129-2.282c-1.023-1.741-1.057-3.918-0.58-5.88
						C687.894,384.341,688.396,380.064,692.59,377.9z"/>
				</g>
			</g>
			<g>
				<g>
					<path style="fill:#EBEBEB;" d="M683.052,359.487c2.546,3.636,7.494,2.432,9.788,0.213c2.294-2.22,3.264-5.436,4.146-8.503
						c2.017-7.009,4.05-14.361,2.551-21.498c-0.448-2.134-1.246-4.262-2.746-5.845c-1.499-1.583-3.805-2.525-5.913-1.968
						c-2.495,0.659-4.045,3.102-5.166,5.427c-3.294,6.832-5.038,14.407-5.064,21.992
						C680.636,352.847,681.053,356.562,683.052,359.487"/>
				</g>
			</g>
			<g>
				<g>
					<path style="fill:#EBEBEB;" d="M676.061,364.704c2.764-3.281,3.289-8.065,2.059-12.175c-1.23-4.11-4.009-7.606-7.211-10.46
						c-3.755-3.346-8.168-5.951-12.913-7.619c-1.867-0.656-3.837-1.175-5.807-0.987c-1.971,0.188-3.955,1.196-4.874,2.949
						c-1.359,2.592-0.056,5.736,1.353,8.3c2.483,4.519,5.321,8.841,8.481,12.915c2.542,3.277,5.454,6.51,9.328,7.991
						c3.874,1.481,7.899,1.307,9.952-1.38"/>
				</g>
			</g>
			<g>
				<g>
					<g>
						<path style="fill:#E0E0E0;" d="M682.879,414.336c0.048,0.003,0.125-0.586,0.23-1.652c0.117-1.203,0.264-2.713,0.439-4.509
							c0.21-1.897,0.487-4.155,1.014-6.614c0.525-2.453,1.348-5.111,2.404-7.806c1.094-2.68,2.427-5.115,3.986-7.063
							c1.547-1.957,3.347-3.373,5.039-4.19c1.686-0.833,3.199-1.171,4.244-1.322c1.054-0.108,1.645-0.191,1.645-0.238
							c0-0.047-0.591-0.055-1.674-0.026c-1.073,0.072-2.648,0.343-4.425,1.151c-1.783,0.791-3.692,2.229-5.316,4.226
							c-1.637,1.989-3.019,4.478-4.132,7.205c-1.075,2.743-1.885,5.428-2.387,7.934c-0.501,2.501-0.729,4.784-0.879,6.697
							c-0.143,1.915-0.197,3.465-0.224,4.537C682.821,413.739,682.833,414.333,682.879,414.336z"/>
					</g>
				</g>
			</g>
			<g>
				<g>
					<g>
						<path style="fill:#E0E0E0;" d="M683.19,410.866c0.023-0.001,0.038-0.265,0.044-0.767c-0.002-0.576-0.003-1.302-0.006-2.192
							c-0.005-1.902-0.004-4.656,0.098-8.056c0.168-6.8,0.754-14.118,1.885-24.435c1.071-9.701,2.508-20.992,4.025-28.332
							c0.325-1.669,0.653-3.172,0.961-4.487c0.294-1.319,0.545-2.455,0.787-3.375c0.208-0.866,0.378-1.571,0.512-2.131
							c0.11-0.49,0.157-0.75,0.134-0.757c-0.023-0.006-0.114,0.241-0.266,0.719c-0.167,0.552-0.378,1.247-0.636,2.101
							c-0.282,0.911-0.572,2.041-0.902,3.354c-0.344,1.31-0.706,2.809-1.062,4.476c-1.501,6.651-3.09,15.948-4.231,26.29
							c-1.133,10.339-1.644,19.752-1.689,26.569c-0.04,3.408,0.032,6.167,0.119,8.071c0.054,0.89,0.099,1.615,0.134,2.191
							C683.135,410.605,683.167,410.867,683.19,410.866z"/>
					</g>
				</g>
			</g>
			<g>
				<g>
					<g>
						<path style="fill:#E0E0E0;" d="M683.236,392.71c0.047-0.002,0.039-0.815-0.016-2.29c-0.084-1.472-0.286-3.599-0.701-6.204
							c-0.44-2.599-1.053-5.686-2.018-9.04c-0.418-1.533-1.4-5.207-3.78-10.697c-3.135-7.438-7.395-13.519-11.101-17.286
							c-0.869-1-1.837-1.721-2.612-2.428c-0.401-0.339-0.755-0.677-1.116-0.944c-0.363-0.25-0.7-0.483-1.013-0.698
							c-1.22-0.834-1.903-1.274-1.928-1.234c-0.11,0.149,2.732,1.821,6.32,5.638c3.573,3.809,7.714,9.848,10.824,17.224
							c1.734,4,2.944,7.569,3.802,10.598c0.991,3.321,1.65,6.376,2.147,8.95c0.473,2.579,0.747,4.685,0.912,6.144
							C683.091,391.902,683.189,392.711,683.236,392.71z"/>
					</g>
				</g>
			</g>
		</g>
		<g>
			<g>
				<polygon style="fill:#E0E0E0;" points="665.686,424.738 667.506,449.663 699.526,449.663 701.346,424.738 				"/>
			</g>
		</g>
		<g>
			<g>
				<rect x="662.594" y="414.913" style="fill:#E0E0E0;" width="42.572" height="9.824"/>
			</g>
		</g>
		<g>
			<g>
				<polygon style="fill:#EBEBEB;" points="662.594,448.709 662.594,451.432 664.594,451.432 704.463,451.432 704.463,448.709 				
					"/>
			</g>
		</g>
		<g>
			<g>
				<polygon style="fill:#E0E0E0;" points="666.555,456.225 664.594,451.432 702.938,451.432 700.65,456.225 				"/>
			</g>
		</g>
		<g>
			<g>
				<g>
					<path style="fill:#F5F5F5;" d="M700.751,432.884c0.007,0.006-0.044,0.084-0.149,0.229c-0.127,0.168-0.284,0.377-0.478,0.635
						c-0.455,0.582-1.08,1.382-1.865,2.387l-0.083,0.106l-0.08-0.111c-1.172-1.622-2.739-3.788-4.583-6.338h0.264
						c-1.363,1.93-2.882,4.08-4.512,6.388l-0.141,0.2l-0.158-0.188c-1.665-1.981-3.474-4.133-5.351-6.366l0.309-0.004
						c-0.093,0.117-0.193,0.243-0.294,0.37c-1.659,2.081-3.266,4.094-4.785,5.998l-0.16,0.2l-0.147-0.208
						c-1.624-2.298-3.142-4.446-4.514-6.387l0.263,0.012c-2.225,2.535-4.111,4.684-5.559,6.334l-0.099,0.112l-0.075-0.127
						c-0.733-1.231-1.317-2.213-1.741-2.924c-0.182-0.317-0.329-0.574-0.447-0.779c-0.098-0.178-0.145-0.272-0.136-0.278
						c0.008-0.005,0.072,0.079,0.186,0.247c0.13,0.197,0.293,0.444,0.494,0.749c0.445,0.699,1.058,1.662,1.827,2.871l-0.174-0.014
						c1.425-1.67,3.281-3.846,5.47-6.411l0.138-0.162l0.125,0.174c1.384,1.933,2.916,4.07,4.555,6.358l-0.307-0.008
						c1.515-1.907,3.118-3.924,4.773-6.007c0.101-0.127,0.201-0.253,0.294-0.37l0.152-0.191l0.156,0.187
						c1.872,2.238,3.676,4.394,5.336,6.379l-0.3,0.012c1.647-2.297,3.18-4.436,4.557-6.357l0.134-0.186l0.13,0.186
						c1.805,2.578,3.338,4.768,4.486,6.407l-0.163-0.005c0.818-0.98,1.467-1.759,1.94-2.326c0.211-0.244,0.382-0.442,0.52-0.601
						C700.679,432.944,700.744,432.878,700.751,432.884z"/>
				</g>
			</g>
		</g>
		<g>
			<g>
				<g>
					<path style="fill:#F5F5F5;" d="M701.791,424.573c0,0.11-8.023,0.199-17.918,0.199c-9.898,0-17.92-0.089-17.92-0.199
						c0-0.11,8.021-0.199,17.92-0.199C693.768,424.374,701.791,424.463,701.791,424.573z"/>
				</g>
			</g>
		</g>
		<g>
			<g>
				<g>
					<path style="fill:#F5F5F5;" d="M703.409,451.701c0,0.11-8.72,0.199-19.474,0.199c-10.758,0-19.475-0.089-19.475-0.199
						c0-0.11,8.718-0.199,19.475-0.199C694.689,451.501,703.409,451.591,703.409,451.701z"/>
				</g>
			</g>
		</g>
	</g>
</g>
<g id="Background_Simple" style="display:none;">
	<path style="display:inline;fill:#EBEBEB;" d="M687.131,119.711l-2.254-4.513c-19.001-38.044-56.953-63.161-99.083-63.964
		c-5.416-0.103-10.84,0.184-16.226,0.881c-38.779,5.017-74.31,31.101-91.095,66.874c-9.871,21.039-14.189,45.843-30.948,61.807
		c-21.81,20.777-55.759,18.688-85.48,15.303c-29.72-3.384-63.699-5.387-85.42,15.486c-13.603,13.072-19.209,32.794-19.762,51.757
		c-1.463,50.204,29.684,97.768,72.149,123.633s94.453,32.153,143.737,26.375c69.041-8.094,136.723-40.367,180.328-95.236
		C696.682,263.246,713.026,184.944,687.131,119.711z"/>
	<circle style="display:inline;fill:#EBEBEB;" cx="117.898" cy="130.569" r="68.477"/>
</g>
<g id="Device">
	<g>
		<g>
			<g>
				<g>
					<g>
						<g>
							<g>
								<path style="fill:#455A64;" d="M612.202,451.521H115.959c-8.045,0-14.567-6.522-14.567-14.567V111.846
									c0-4.281,3.47-7.751,7.751-7.751h510.886c3.722,0,6.74,3.018,6.74,6.74v326.119
									C626.769,444.999,620.247,451.521,612.202,451.521z"/>
							</g>
						</g>
					</g>
				</g>
				<g>
					<g>
						<g>
							<g>
								<path style="fill:#455A64;" d="M634.906,456.225H93.143c-7.578,0-13.721-6.143-13.721-13.721v-16.678h569.206v16.678
									C648.628,450.082,642.485,456.225,634.906,456.225z"/>
							</g>
						</g>
					</g>
				</g>
				<g>
					<g>
						<g>
							<g>
								<rect x="115.494" y="117.898" style="fill:#E0E0E0;" width="495.703" height="293.396"/>
							</g>
						</g>
					</g>
				</g>
				<g>
					<g>
						<g>
							<g>
								<polygon style="fill:#263238;" points="312.289,425.826 319.353,437.061 418.743,437.061 425.302,425.826 								"/>
							</g>
						</g>
					</g>
				</g>
			</g>
			<g>
				<g>
					<g>
						<rect x="130.202" y="134.896" style="fill:#263238;" width="467.484" height="276.397"/>
					</g>
				</g>
				<g>
					<g>
						<g>
							<path style="fill:#E0E0E0;" d="M166.069,403.183c-0.242,0-0.439-58.868-0.439-131.468c0-72.626,0.196-131.481,0.439-131.481
								s0.439,58.855,0.439,131.481C166.508,344.315,166.311,403.183,166.069,403.183z"/>
						</g>
					</g>
				</g>
				<g>
					<g>
						<g>
							<path style="fill:#E0E0E0;" d="M156.639,164.069c0,0.242-3.4,0.439-7.594,0.439c-4.195,0-7.594-0.196-7.594-0.439
								c0-0.242,3.4-0.438,7.594-0.438C153.239,163.631,156.639,163.827,156.639,164.069z"/>
						</g>
					</g>
				</g>
				<g>
					<g>
						<g>
							<path style="fill:#E0E0E0;" d="M157.224,149.149c0,0.242-3.4,0.439-7.594,0.439c-4.195,0-7.594-0.196-7.594-0.439
								c0-0.242,3.4-0.438,7.594-0.438C153.824,148.71,157.224,148.907,157.224,149.149z"/>
						</g>
					</g>
				</g>
				<g>
					<g>
						<g>
							<path style="fill:#E0E0E0;" d="M156.639,180.152c0,0.242-3.4,0.439-7.594,0.439c-4.195,0-7.594-0.196-7.594-0.439
								s3.4-0.439,7.594-0.439C153.239,179.713,156.639,179.909,156.639,180.152z"/>
						</g>
					</g>
				</g>
				<g>
					<g>
						<g>
							<path style="fill:#E0E0E0;" d="M156.639,196.234c0,0.242-3.4,0.439-7.594,0.439c-4.195,0-7.594-0.196-7.594-0.439
								c0-0.242,3.4-0.438,7.594-0.438C153.239,195.796,156.639,195.992,156.639,196.234z"/>
						</g>
					</g>
				</g>
				<g>
					<g>
						<g>
							<path style="fill:#E0E0E0;" d="M156.639,212.316c0,0.242-3.4,0.439-7.594,0.439c-4.195,0-7.594-0.196-7.594-0.439
								c0-0.242,3.4-0.439,7.594-0.439C153.239,211.878,156.639,212.074,156.639,212.316z"/>
						</g>
					</g>
				</g>
				<g>
					<g>
						<g>
							<path style="fill:#E0E0E0;" d="M156.639,228.399c0,0.242-3.4,0.439-7.594,0.439c-4.195,0-7.594-0.196-7.594-0.439
								c0-0.242,3.4-0.438,7.594-0.438C153.239,227.96,156.639,228.157,156.639,228.399z"/>
						</g>
					</g>
				</g>
				<g>
					<g>
						<g>
							<path style="fill:#E0E0E0;" d="M156.639,244.481c0,0.242-3.4,0.439-7.594,0.439c-4.195,0-7.594-0.196-7.594-0.439
								c0-0.242,3.4-0.438,7.594-0.438C153.239,244.043,156.639,244.239,156.639,244.481z"/>
						</g>
					</g>
				</g>
				<g>
					<g>
						<g>
							<path style="fill:#E0E0E0;" d="M156.639,260.564c0,0.242-3.4,0.439-7.594,0.439c-4.195,0-7.594-0.196-7.594-0.439
								c0-0.242,3.4-0.439,7.594-0.439C153.239,260.125,156.639,260.322,156.639,260.564z"/>
						</g>
					</g>
				</g>
				<g>
					<g>
						<g>
							<path style="fill:#E0E0E0;" d="M156.639,276.646c0,0.242-3.4,0.439-7.594,0.439c-4.195,0-7.594-0.196-7.594-0.439
								c0-0.242,3.4-0.438,7.594-0.438C153.239,276.208,156.639,276.404,156.639,276.646z"/>
						</g>
					</g>
				</g>
				<g>
					<g>
						<g>
							<path style="fill:#E0E0E0;" d="M156.639,292.729c0,0.242-3.4,0.439-7.594,0.439c-4.195,0-7.594-0.196-7.594-0.439
								c0-0.242,3.4-0.439,7.594-0.439C153.239,292.29,156.639,292.487,156.639,292.729z"/>
						</g>
					</g>
				</g>
				<g>
					<g>
						<g>
							<path style="fill:#E0E0E0;" d="M156.639,308.811c0,0.242-3.4,0.438-7.594,0.438c-4.195,0-7.594-0.196-7.594-0.438
								c0-0.242,3.4-0.439,7.594-0.439C153.239,308.372,156.639,308.569,156.639,308.811z"/>
						</g>
					</g>
				</g>
				<g>
					<g>
						<g>
							<path style="fill:#E0E0E0;" d="M156.639,324.893c0,0.242-3.4,0.439-7.594,0.439c-4.195,0-7.594-0.196-7.594-0.439
								c0-0.242,3.4-0.438,7.594-0.438C153.239,324.455,156.639,324.651,156.639,324.893z"/>
						</g>
					</g>
				</g>
				<g>
					<g>
						<g>
							<path style="fill:#E0E0E0;" d="M156.639,340.976c0,0.242-3.4,0.439-7.594,0.439c-4.195,0-7.594-0.196-7.594-0.439
								c0-0.242,3.4-0.438,7.594-0.438C153.239,340.537,156.639,340.734,156.639,340.976z"/>
						</g>
					</g>
				</g>
				<g>
					<g>
						<g>
							<path style="fill:#E0E0E0;" d="M156.639,357.058c0,0.242-3.4,0.439-7.594,0.439c-4.195,0-7.594-0.196-7.594-0.439
								c0-0.242,3.4-0.438,7.594-0.438C153.239,356.62,156.639,356.816,156.639,357.058z"/>
						</g>
					</g>
				</g>
				<g>
					<g>
						<g>
							<path style="fill:#E0E0E0;" d="M156.639,373.141c0,0.242-3.4,0.439-7.594,0.439c-4.195,0-7.594-0.196-7.594-0.439
								c0-0.242,3.4-0.439,7.594-0.439C153.239,372.702,156.639,372.899,156.639,373.141z"/>
						</g>
					</g>
				</g>
				<g>
					<g>
						<g>
							<path style="fill:#E0E0E0;" d="M156.639,389.223c0,0.242-3.4,0.439-7.594,0.439c-4.195,0-7.594-0.196-7.594-0.439
								c0-0.242,3.4-0.438,7.594-0.438C153.239,388.785,156.639,388.981,156.639,389.223z"/>
						</g>
					</g>
				</g>
				<g>
					<g>
						<g>
							<path style="fill:#FF725E;" d="M217.514,163.121c0,0.242-8.824,0.439-19.707,0.439c-10.886,0-19.708-0.196-19.708-0.439
								s8.822-0.439,19.708-0.439C208.689,162.682,217.514,162.879,217.514,163.121z"/>
						</g>
					</g>
				</g>
				<g>
					<g>
						<g>
							<path style="fill:#FF725E;" d="M217.514,389.223c0,0.242-8.824,0.439-19.707,0.439c-10.886,0-19.708-0.196-19.708-0.439
								c0-0.242,8.822-0.438,19.708-0.438C208.689,388.785,217.514,388.981,217.514,389.223z"/>
						</g>
					</g>
				</g>
				<g>
					<g>
						<g>
							<path style="fill:#FF725E;" d="M272.404,196.234c0,0.242-16.51,0.439-36.871,0.439c-20.368,0-36.875-0.196-36.875-0.439
								c0-0.242,16.506-0.438,36.875-0.438C255.894,195.796,272.404,195.992,272.404,196.234z"/>
						</g>
					</g>
				</g>
				<g>
					<g>
						<g>
							<path style="fill:#E0E0E0;" d="M357.676,196.234c0,0.242-16.51,0.439-36.871,0.439c-20.368,0-36.874-0.196-36.874-0.439
								c0-0.242,16.506-0.438,36.874-0.438C341.166,195.796,357.676,195.992,357.676,196.234z"/>
						</g>
					</g>
				</g>
				<g>
					<g>
						<g>
							<path style="fill:#E0E0E0;" d="M325.086,212.316c0,0.242-24.331,0.439-54.338,0.439c-30.017,0-54.343-0.196-54.343-0.439
								c0-0.242,24.326-0.439,54.343-0.439C300.755,211.878,325.086,212.074,325.086,212.316z"/>
						</g>
					</g>
				</g>
				<g>
					<g>
						<g>
							<path style="fill:#E0E0E0;" d="M325.086,228.399c0,0.242-24.331,0.439-54.338,0.439c-30.017,0-54.343-0.196-54.343-0.439
								c0-0.242,24.326-0.438,54.343-0.438C300.755,227.96,325.086,228.157,325.086,228.399z"/>
						</g>
					</g>
				</g>
				<g>
					<g>
						<g>
							<path style="fill:#E0E0E0;" d="M399.895,276.646c0,0.242-24.331,0.439-54.338,0.439c-30.017,0-54.343-0.196-54.343-0.439
								c0-0.242,24.326-0.438,54.343-0.438C375.565,276.208,399.895,276.404,399.895,276.646z"/>
						</g>
					</g>
				</g>
				<g>
					<g>
						<g>
							<path style="fill:#E0E0E0;" d="M367.614,244.481c0,0.242-24.331,0.439-54.338,0.439c-30.017,0-54.343-0.196-54.343-0.439
								c0-0.242,24.326-0.438,54.343-0.438C343.283,244.043,367.614,244.239,367.614,244.481z"/>
						</g>
					</g>
				</g>
				<g>
					<g>
						<g>
							<path style="fill:#E0E0E0;" d="M500.423,244.481c0,0.242-24.331,0.439-54.338,0.439c-30.017,0-54.343-0.196-54.343-0.439
								c0-0.242,24.326-0.438,54.343-0.438C476.092,244.043,500.423,244.239,500.423,244.481z"/>
						</g>
					</g>
				</g>
				<g>
					<g>
						<g>
							<path style="fill:#FAFAFA;" d="M454.236,212.316c0,0.242-24.331,0.439-54.338,0.439c-30.017,0-54.343-0.196-54.343-0.439
								c0-0.242,24.326-0.439,54.343-0.439C429.905,211.878,454.236,212.074,454.236,212.316z"/>
						</g>
					</g>
				</g>
				<g>
					<g>
						<g>
							<path style="fill:#FAFAFA;" d="M529.308,276.646c0,0.242-24.331,0.439-54.338,0.439c-30.017,0-54.343-0.196-54.343-0.439
								c0-0.242,24.326-0.438,54.343-0.438C504.977,276.208,529.308,276.404,529.308,276.646z"/>
						</g>
					</g>
				</g>
				<g>
					<g>
						<g>
							<path style="fill:#455A64;" d="M514.317,228.399c0,0.242-37.782,0.439-84.377,0.439c-46.612,0-84.385-0.196-84.385-0.439
								c0-0.242,37.773-0.438,84.385-0.438C476.535,227.96,514.317,228.157,514.317,228.399z"/>
						</g>
					</g>
				</g>
				<g>
					<g>
						<g>
							<path style="fill:#FAFAFA;" d="M217.514,180.152c0,0.242-8.824,0.439-19.707,0.439c-10.886,0-19.708-0.196-19.708-0.439
								s8.822-0.439,19.708-0.439C208.689,179.713,217.514,179.909,217.514,180.152z"/>
						</g>
					</g>
				</g>
				<g>
					<g>
						<g>
							<path style="fill:#FAFAFA;" d="M217.514,373.141c0,0.242-8.824,0.439-19.707,0.439c-10.886,0-19.708-0.196-19.708-0.439
								c0-0.242,8.822-0.439,19.708-0.439C208.689,372.702,217.514,372.899,217.514,373.141z"/>
						</g>
					</g>
				</g>
				<g>
					<g>
						<g>
							<path style="fill:#FAFAFA;" d="M237.04,244.481c0,0.242-8.824,0.439-19.707,0.439c-10.886,0-19.708-0.196-19.708-0.439
								c0-0.242,8.822-0.438,19.708-0.438C228.215,244.043,237.04,244.239,237.04,244.481z"/>
						</g>
					</g>
				</g>
				<g>
					<g>
						<g>
							<path style="fill:#FF725E;" d="M552.934,244.481c0,0.242-8.824,0.439-19.706,0.439c-10.886,0-19.709-0.196-19.709-0.439
								c0-0.242,8.822-0.438,19.709-0.438C544.11,244.043,552.934,244.239,552.934,244.481z"/>
						</g>
					</g>
				</g>
				<g>
					<g>
						<g>
							<path style="fill:#FF725E;" d="M272.404,308.716c0,0.242-16.51,0.439-36.871,0.439c-20.368,0-36.875-0.196-36.875-0.439
								c0-0.242,16.506-0.439,36.875-0.439C255.894,308.278,272.404,308.474,272.404,308.716z"/>
						</g>
					</g>
				</g>
				<g>
					<g>
						<g>
							<path style="fill:#E0E0E0;" d="M357.676,308.716c0,0.242-16.51,0.439-36.871,0.439c-20.368,0-36.874-0.196-36.874-0.439
								c0-0.242,16.506-0.439,36.874-0.439C341.166,308.278,357.676,308.474,357.676,308.716z"/>
						</g>
					</g>
				</g>
				<g>
					<g>
						<g>
							<path style="fill:#E0E0E0;" d="M325.086,324.799c0,0.242-24.331,0.439-54.338,0.439c-30.017,0-54.343-0.196-54.343-0.439
								c0-0.242,24.326-0.439,54.343-0.439C300.755,324.36,325.086,324.557,325.086,324.799z"/>
						</g>
					</g>
				</g>
				<g>
					<g>
						<g>
							<path style="fill:#E0E0E0;" d="M325.086,340.881c0,0.242-24.331,0.439-54.338,0.439c-30.017,0-54.343-0.196-54.343-0.439
								c0-0.242,24.326-0.439,54.343-0.439C300.755,340.443,325.086,340.639,325.086,340.881z"/>
						</g>
					</g>
				</g>
				<g>
					<g>
						<g>
							<path style="fill:#E0E0E0;" d="M367.614,356.964c0,0.242-24.331,0.439-54.338,0.439c-30.017,0-54.343-0.196-54.343-0.439
								c0-0.242,24.326-0.438,54.343-0.438C343.283,356.525,367.614,356.722,367.614,356.964z"/>
						</g>
					</g>
				</g>
				<g>
					<g>
						<g>
							<path style="fill:#E0E0E0;" d="M500.423,356.964c0,0.242-24.331,0.439-54.338,0.439c-30.017,0-54.343-0.196-54.343-0.439
								c0-0.242,24.326-0.438,54.343-0.438C476.092,356.525,500.423,356.722,500.423,356.964z"/>
						</g>
					</g>
				</g>
				<g>
					<g>
						<g>
							<path style="fill:#FAFAFA;" d="M454.236,324.799c0,0.242-24.331,0.439-54.338,0.439c-30.017,0-54.343-0.196-54.343-0.439
								c0-0.242,24.326-0.439,54.343-0.439C429.905,324.36,454.236,324.557,454.236,324.799z"/>
						</g>
					</g>
				</g>
				<g>
					<g>
						<g>
							<path style="fill:#455A64;" d="M514.317,340.881c0,0.242-37.782,0.439-84.377,0.439c-46.612,0-84.385-0.196-84.385-0.439
								c0-0.242,37.773-0.439,84.385-0.439C476.535,340.443,514.317,340.639,514.317,340.881z"/>
						</g>
					</g>
				</g>
				<g>
					<g>
						<g>
							<path style="fill:#FAFAFA;" d="M237.04,356.964c0,0.242-8.824,0.439-19.707,0.439c-10.886,0-19.708-0.196-19.708-0.439
								c0-0.242,8.822-0.438,19.708-0.438C228.215,356.525,237.04,356.722,237.04,356.964z"/>
						</g>
					</g>
				</g>
				<g>
					<g>
						<g>
							<path style="fill:#FF725E;" d="M552.934,356.964c0,0.242-8.824,0.439-19.706,0.439c-10.886,0-19.709-0.196-19.709-0.439
								c0-0.242,8.822-0.438,19.709-0.438C544.11,356.525,552.934,356.722,552.934,356.964z"/>
						</g>
					</g>
				</g>
			</g>
		</g>
		<g>
			<path style="fill:#263238;" d="M563.437,435.979c0,0.144-100.64,0.26-224.757,0.26c-124.16,0-224.778-0.117-224.778-0.26
				c0-0.144,100.618-0.26,224.778-0.26C462.797,435.718,563.437,435.835,563.437,435.979z"/>
		</g>
	</g>
</g>
<g id="Plant">
	<g>
		<g>
			<path style="fill:#FF725E;" d="M97.072,347.825c-13.788-14.112-35.391-20.041-54.45-14.944
				c16.556,11.101,35.161,17.049,55.094,17.213"/>
		</g>
		<g>
			<g>
				<path style="fill:#FF725E;" d="M78.604,282.426c2.269-16.045-3.967-34.095-15.98-45.758
					C62.227,252.57,68.94,270.465,78.604,282.426"/>
			</g>
			<g>
				<path style="fill:#FF725E;" d="M88.21,312.736c-8.561-16.364-22.614-29.794-39.349-37.605
					c5.015,18.474,20.817,33.587,39.496,37.775"/>
			</g>
			<g>
				<path style="fill:#FF725E;" d="M90.2,318.584c-9.691,0.272-19.499-0.069-28.871-2.549c-9.372-2.48-18.349-7.246-24.585-14.669
					c18.853,0.021,37.661,5.763,53.311,16.275"/>
			</g>
			<g>
				<path style="fill:#FF725E;" d="M85.281,299.321c4.919-18.436,13.035-31.19,27.526-41.522c1.097,8.97-1.108,18.307-6.102,25.84
					C101.712,291.171,93.97,296.838,85.281,299.321"/>
			</g>
			<g>
				<path style="fill:#FF725E;" d="M121.862,331.116c0.254-10.714-6.651-21.242-16.579-25.277
					C106.088,315.36,113.567,326.374,121.862,331.116"/>
			</g>
			<g>
				<path style="fill:#FF725E;" d="M126.492,315.571c1.101-15.401,12.044-29.649,26.639-34.687
					C149.784,296.291,140.876,309.116,126.492,315.571"/>
			</g>
			<g>
				<path style="fill:#FF725E;" d="M119.515,343.157c3.418-4.889,8.994-7.929,14.765-9.439s11.8-1.643,17.764-1.768
					c-8.045,8.852-20.125,13.883-32.075,13.359"/>
			</g>
			<g>
				<path style="fill:#FF725E;" d="M112.588,382.455c10.751-3.319,22.733-2.46,32.901,2.356
					c10.168,4.817,18.422,13.545,22.665,23.966C147.969,404.947,128.051,395.982,112.588,382.455"/>
			</g>
			<g>
				<path style="fill:#FF725E;" d="M90.435,368.797c3.353,9.912,2.709,21.892-4.744,30.434
					C82.658,389.061,84.451,377.562,90.435,368.797"/>
			</g>
			<g>
				<path style="fill:#FF725E;" d="M77.343,363.292c-0.933,12.744-9.081,24.714-20.594,30.256c-0.572,0.275-1.233,0.539-1.821,0.299
					c-0.908-0.37-0.991-1.609-0.879-2.584C55.508,378.565,64.916,366.284,77.343,363.292"/>
			</g>
			<g>
				<path style="fill:#FF725E;" d="M68.79,362.004c-5.67,6.126-13.938,9.765-22.286,9.808c-8.347,0.043-16.652-3.512-22.384-9.58
					C38.319,360.678,54.702,359.642,68.79,362.004"/>
			</g>
			<g>
				<g>
					<g>
						<path style="fill:#263238;" d="M66.664,248.494c-0.009,0.003,0.035,0.144,0.13,0.416c0.106,0.294,0.25,0.692,0.433,1.201
							c0.402,1.078,0.977,2.622,1.713,4.598c0.764,1.988,1.645,4.441,2.667,7.29c0.514,1.424,1.063,2.946,1.645,4.559
							c0.56,1.623,1.152,3.337,1.773,5.136c2.516,7.19,5.309,15.82,8.324,25.428c2.961,9.626,6.071,20.253,9.13,31.464
							c3.018,11.227,5.694,21.974,7.971,31.785c2.213,9.825,4.116,18.695,5.491,26.186c0.353,1.87,0.689,3.652,1.007,5.339
							c0.287,1.69,0.558,3.285,0.812,4.777c0.514,2.982,0.955,5.55,1.251,7.659c0.32,2.083,0.57,3.712,0.744,4.849
							c0.088,0.533,0.157,0.951,0.207,1.259c0.05,0.283,0.08,0.428,0.089,0.427c0.009-0.001-0.002-0.148-0.034-0.434
							c-0.038-0.311-0.089-0.73-0.154-1.267c-0.151-1.141-0.367-2.775-0.644-4.865c-0.264-2.115-0.674-4.69-1.16-7.678
							c-0.241-1.496-0.498-3.094-0.771-4.787c-0.306-1.69-0.63-3.475-0.97-5.349c-1.327-7.506-3.193-16.39-5.38-26.228
							c-2.252-9.824-4.915-20.582-7.935-31.815c-3.061-11.218-6.188-21.848-9.176-31.471c-3.044-9.606-5.876-18.228-8.439-25.406
							c-0.634-1.796-1.239-3.506-1.811-5.126c-0.596-1.608-1.159-3.126-1.685-4.547c-1.049-2.84-1.959-5.283-2.754-7.261
							c-0.777-1.96-1.384-3.493-1.808-4.562c-0.205-0.5-0.365-0.892-0.483-1.181C66.734,248.624,66.673,248.49,66.664,248.494z"/>
					</g>
				</g>
				<g>
					<g>
						<path style="fill:#263238;" d="M144.656,289.109c-0.007-0.006-0.09,0.072-0.245,0.231c-0.173,0.182-0.397,0.418-0.679,0.714
							c-0.593,0.631-1.452,1.577-2.525,2.825c-2.143,2.493-5.168,6.191-8.36,11.147c-3.192,4.941-6.464,11.234-8.742,18.701
							c-2.342,7.445-3.796,15.907-5.243,24.751c-2.887,17.705-6.43,33.561-8.994,45.032c-1.293,5.707-2.341,10.336-3.075,13.578
							c-0.35,1.578-0.624,2.816-0.819,3.696c-0.083,0.4-0.149,0.718-0.2,0.964c-0.042,0.218-0.059,0.331-0.05,0.333
							c0.009,0.002,0.044-0.106,0.104-0.32c0.064-0.243,0.147-0.557,0.252-0.952c0.219-0.875,0.526-2.105,0.918-3.673
							c0.774-3.233,1.88-7.85,3.244-13.541c2.66-11.45,6.265-27.307,9.156-45.029c1.447-8.846,2.882-17.281,5.185-24.691
							c2.239-7.431,5.45-13.695,8.588-18.643c3.136-4.96,6.107-8.686,8.197-11.216c1.045-1.267,1.879-2.233,2.445-2.888
							c0.265-0.311,0.476-0.558,0.638-0.75C144.594,289.206,144.663,289.115,144.656,289.109z"/>
					</g>
				</g>
				<g>
					<g>
						<path style="fill:#263238;" d="M64.548,361.401c-0.001,0.019,0.175,0.051,0.511,0.094c0.399,0.044,0.884,0.098,1.47,0.162
							c0.327,0.032,0.681,0.067,1.062,0.104c0.391,0.059,0.81,0.122,1.256,0.189c0.901,0.133,1.929,0.266,3.048,0.514
							c0.564,0.112,1.152,0.229,1.763,0.351c0.607,0.154,1.238,0.313,1.888,0.478c1.314,0.297,2.672,0.778,4.12,1.215
							c2.854,1.001,5.928,2.288,8.991,3.962c3.053,1.696,5.754,3.651,8.061,5.599c1.12,1.014,2.2,1.962,3.093,2.969
							c0.956,0.948,1.731,1.932,2.447,2.823c0.755,0.863,1.28,1.759,1.812,2.497c0.539,0.735,0.927,1.415,1.241,1.974
							c0.3,0.507,0.549,0.927,0.753,1.272c0.178,0.288,0.279,0.436,0.296,0.428c0.017-0.008-0.052-0.172-0.199-0.478
							c-0.18-0.359-0.4-0.797-0.666-1.326c-0.287-0.578-0.651-1.279-1.17-2.036c-0.512-0.759-1.02-1.68-1.763-2.566
							c-0.704-0.916-1.47-1.924-2.423-2.897c-0.89-1.031-1.969-2.003-3.093-3.039c-2.315-1.992-5.041-3.983-8.126-5.697
							c-3.095-1.692-6.206-2.978-9.095-3.961c-1.465-0.428-2.839-0.897-4.168-1.177c-0.658-0.156-1.296-0.306-1.91-0.451
							c-0.618-0.111-1.212-0.217-1.782-0.319c-1.131-0.226-2.17-0.332-3.079-0.438c-0.45-0.051-0.872-0.1-1.267-0.145
							c-0.385-0.021-0.741-0.04-1.071-0.058c-0.591-0.024-1.08-0.045-1.482-0.061C64.727,361.378,64.548,361.383,64.548,361.401z"/>
					</g>
				</g>
			</g>
			<g>
				<g>
					<path style="fill:#263238;" d="M60.504,289.449c-0.024,0.028,0.341,0.378,1.023,0.986c0.77,0.668,1.75,1.518,2.922,2.535
						c2.483,2.122,5.938,5.026,9.775,8.208c3.839,3.182,7.332,6.04,9.878,8.086c1.216,0.963,2.233,1.769,3.032,2.402
						c0.723,0.558,1.134,0.852,1.158,0.823c0.023-0.029-0.343-0.379-1.026-0.988c-0.77-0.668-1.751-1.519-2.923-2.535
						c-2.483-2.123-5.936-5.025-9.773-8.206c-3.835-3.18-7.327-6.035-9.872-8.082c-1.216-0.964-2.234-1.77-3.033-2.403
						C60.94,289.716,60.528,289.421,60.504,289.449z"/>
				</g>
			</g>
			<g>
				<g>
					<path style="fill:#263238;" d="M57.013,308.232c-0.043,0.144,7.413,2.473,16.65,5.203c9.24,2.73,16.763,4.826,16.806,4.682
						c0.042-0.144-7.412-2.473-16.652-5.203C64.58,310.184,57.056,308.088,57.013,308.232z"/>
				</g>
			</g>
			<g>
				<g>
					<path style="fill:#263238;" d="M84.542,300.754c0.032,0.019,0.305-0.363,0.77-1.071c0.525-0.799,1.183-1.802,1.965-2.994
						c1.667-2.522,4.033-5.962,6.831-9.626c2.802-3.662,5.498-6.852,7.486-9.13c0.94-1.073,1.73-1.975,2.36-2.694
						c0.557-0.638,0.852-1.003,0.825-1.029c-0.027-0.026-0.374,0.29-0.979,0.884c-0.607,0.592-1.459,1.473-2.492,2.582
						c-2.065,2.218-4.818,5.381-7.632,9.057c-2.809,3.678-5.135,7.167-6.723,9.748c-0.794,1.291-1.416,2.348-1.823,3.092
						C84.721,300.316,84.51,300.735,84.542,300.754z"/>
				</g>
			</g>
			<g>
				<g>
					<path style="fill:#263238;" d="M110.433,311.179c-0.065,0.046,0.635,1.125,1.749,2.876c1.114,1.751,2.625,4.185,4.191,6.934
						c1.564,2.751,2.885,5.294,3.82,7.147c0.936,1.852,1.506,3.005,1.579,2.973c0.064-0.028-0.381-1.237-1.232-3.138
						c-0.85-1.901-2.123-4.485-3.695-7.25c-1.573-2.763-3.144-5.177-4.343-6.879C111.302,312.139,110.49,311.138,110.433,311.179z"
						/>
				</g>
			</g>
			<g>
				<g>
					<path style="fill:#263238;" d="M119.292,343.671c0.039,0.074,1.46-0.622,3.789-1.669c2.327-1.049,5.578-2.417,9.251-3.705
						c3.676-1.284,7.07-2.241,9.544-2.873c2.473-0.633,4.018-0.976,4.002-1.058c-0.007-0.037-0.402,0.006-1.11,0.116
						c-0.709,0.106-1.728,0.298-2.981,0.569c-2.506,0.538-5.938,1.442-9.635,2.734c-3.694,1.296-6.941,2.729-9.235,3.871
						c-1.148,0.57-2.065,1.055-2.685,1.414C119.609,343.425,119.274,343.637,119.292,343.671z"/>
				</g>
			</g>
			<g>
				<g>
					<path style="fill:#263238;" d="M112.318,382.514c-0.004,0.018,0.154,0.071,0.46,0.156c0.369,0.094,0.811,0.207,1.342,0.342
						c1.257,0.29,2.931,0.676,4.959,1.144c4.18,0.972,10.003,2.186,16.195,4.275c6.193,2.108,11.506,4.789,15.11,7.099
						c1.806,1.15,3.213,2.166,4.163,2.898c0.953,0.727,1.473,1.142,1.501,1.11c0.012-0.014-0.103-0.135-0.333-0.353
						c-0.234-0.213-0.569-0.541-1.035-0.922c-0.913-0.786-2.294-1.855-4.086-3.055c-3.575-2.409-8.91-5.169-15.143-7.29
						c-6.242-2.105-12.088-3.26-16.291-4.136c-2.043-0.399-3.729-0.728-4.995-0.976
						C112.982,382.585,112.326,382.477,112.318,382.514z"/>
				</g>
			</g>
			<g>
				<g>
					<path style="fill:#263238;" d="M87.099,392.089c0.148,0.022,1.036-5.208,1.983-11.679c0.947-6.473,1.594-11.737,1.446-11.759
						c-0.148-0.022-1.036,5.207-1.983,11.68C87.598,386.802,86.951,392.067,87.099,392.089z"/>
				</g>
			</g>
			<g>
				<g>
					<path style="fill:#263238;" d="M60.844,382.555c0.063,0.047,0.946-1.044,2.366-2.81c1.419-1.766,3.385-4.2,5.607-6.846
						c2.224-2.645,4.283-5.001,5.779-6.704c1.495-1.703,2.417-2.76,2.36-2.814c-0.027-0.026-0.293,0.205-0.752,0.644
						c-0.46,0.439-1.106,1.091-1.891,1.911c-1.571,1.639-3.681,3.961-5.911,6.614c-2.228,2.653-4.152,5.131-5.496,6.961
						c-0.672,0.915-1.204,1.664-1.557,2.192C60.995,382.231,60.814,382.533,60.844,382.555z"/>
				</g>
			</g>
		</g>
		<g>
			<polygon style="fill:#FF725E;" points="130.327,406.906 130.327,419.88 127.083,419.88 115.551,456.277 89.978,456.277 
				78.807,420.24 74.482,419.88 74.482,406.906 			"/>
		</g>
		<g style="opacity:0.3;">
			<polygon points="130.327,406.906 130.327,419.88 127.083,419.88 115.551,456.277 89.978,456.277 78.807,420.24 74.482,419.88 
				74.482,406.906 			"/>
		</g>
		<g>
			<g>
				<path style="fill:#263238;" d="M76.644,420.24c0,0.15,11.292,0.271,25.218,0.271c13.931,0,25.221-0.121,25.221-0.271
					c0-0.15-11.29-0.272-25.221-0.272C87.937,419.969,76.644,420.09,76.644,420.24z"/>
			</g>
		</g>
		<g>
			<g>
				<path style="fill:#263238;" d="M58.252,336.79c-0.007,0.037,0.577,0.193,1.639,0.443c1.152,0.278,2.664,0.642,4.489,1.082
					c3.783,0.937,8.978,2.359,14.613,4.251c5.635,1.899,10.634,3.905,14.215,5.444c1.72,0.752,3.145,1.376,4.23,1.85
					c0.997,0.442,1.557,0.671,1.573,0.637c0.017-0.034-0.512-0.327-1.482-0.828c-0.968-0.506-2.391-1.195-4.166-2.011
					c-3.548-1.633-8.543-3.703-14.197-5.608c-5.654-1.898-10.884-3.267-14.698-4.11c-1.907-0.423-3.457-0.733-4.534-0.915
					C58.857,336.84,58.259,336.754,58.252,336.79z"/>
			</g>
		</g>
		<g>
			<g>
				<path style="fill:#FAFAFA;" d="M85.135,440.452c0,0.15,7.922,0.271,17.693,0.271c9.774,0,17.695-0.122,17.695-0.271
					s-7.921-0.271-17.695-0.271C93.057,440.181,85.135,440.302,85.135,440.452z"/>
			</g>
		</g>
		<g>
			<g>
				<path style="fill:#FAFAFA;" d="M84.14,437.443c0,0.15,8.396,0.272,18.75,0.272c10.358,0,18.752-0.122,18.752-0.272
					s-8.394-0.271-18.752-0.271C92.536,437.172,84.14,437.293,84.14,437.443z"/>
			</g>
		</g>
	</g>
</g>
<g id="Floor">
	<g>
		<path style="fill:#263238;" d="M709.457,456.485c0,0.144-152.44,0.26-340.441,0.26c-188.066,0-340.473-0.117-340.473-0.26
			c0-0.144,152.407-0.26,340.473-0.26C557.017,456.224,709.457,456.341,709.457,456.485z"/>
	</g>
</g>
<g id="Speech_Bubbles">
	<g>
		<g>
			<polygon style="fill:#FAFAFA;" points="616.036,76.125 348.051,76.125 348.051,242.091 573.65,242.091 587.617,274.224 
				599.999,242.091 616.036,242.091 			"/>
			<g>
				<path style="fill:#263238;" d="M616.036,76.125c0.002,1.609,0.077,63.96,0.2,165.966l0,0.2l-0.201,0
					c-4.924,0.002-10.429,0.005-16.037,0.007l0.194-0.133c-3.877,10.072-8.055,20.929-12.37,32.137l-0.194,0.504l-0.215-0.495
					c-4.38-10.067-9.115-20.952-13.977-32.128l0.213,0.14c-60.615,0.008-130.27,0.018-204.015,0.028c-7.242,0-14.445,0-21.584,0
					h-0.26l0-0.26c0.008-59.148,0.016-115.283,0.023-165.966v-0.238l0.237,0C506.269,76.028,613.927,76.123,616.036,76.125
					c-2.108,0.002-109.767,0.097-267.986,0.237l0.237-0.237c0.007,50.684,0.015,106.818,0.023,165.966l-0.26-0.26
					c7.139,0,14.341,0,21.584,0c73.745,0.01,143.401,0.02,204.015,0.028h0.153l0.061,0.14c4.855,11.179,9.583,22.067,13.956,32.137
					l-0.409,0.009c4.323-11.206,8.51-22.059,12.395-32.128l0.051-0.133l0.143,0c5.608,0.003,11.113,0.005,16.037,0.007l-0.2,0.2
					C615.959,140.085,616.034,77.733,616.036,76.125z"/>
			</g>
		</g>
		<g>
			<g>
				<g>
					<path style="fill:#263238;" d="M615.897,92.32c0,0.202-59.874,0.366-133.715,0.366c-73.867,0-133.728-0.164-133.728-0.366
						c0-0.202,59.861-0.366,133.728-0.366C556.024,91.954,615.897,92.118,615.897,92.32z"/>
				</g>
			</g>
			<g>
				<g>
					<path style="fill:#263238;" d="M362.294,84.989c0,1.213-0.983,2.196-2.196,2.196c-1.213,0-2.196-0.983-2.196-2.196
						c0-1.213,0.983-2.196,2.196-2.196C361.31,82.793,362.294,83.776,362.294,84.989z"/>
				</g>
				<g>
					<path style="fill:#263238;" d="M370.242,84.989c0,1.213-0.983,2.196-2.196,2.196c-1.213,0-2.196-0.983-2.196-2.196
						c0-1.213,0.983-2.196,2.196-2.196C369.259,82.793,370.242,83.776,370.242,84.989z"/>
				</g>
				<g>
					<path style="fill:#263238;" d="M378.191,84.989c0,1.213-0.983,2.196-2.196,2.196c-1.213,0-2.196-0.983-2.196-2.196
						c0-1.213,0.983-2.196,2.196-2.196C377.208,82.793,378.191,83.776,378.191,84.989z"/>
				</g>
			</g>
			<g>
				<path style="fill:#263238;" d="M377.28,122.01l-6.365,2.456l6.365,2.457v1.488l-8.033-3.173v-1.541l8.033-3.173V122.01z"/>
				<path style="fill:#263238;" d="M383.902,115.645h1.559l-5.916,16.888h-1.561L383.902,115.645z"/>
				<path style="fill:#263238;" d="M394.034,123.696v1.541l-8.032,3.173v-1.488l6.383-2.457l-6.383-2.456v-1.488L394.034,123.696z"
					/>
				<path style="fill:#263238;" d="M396.064,129.611c0-0.716,0.556-1.219,1.219-1.219c0.645,0,1.183,0.502,1.183,1.219
					c0,0.718-0.538,1.238-1.183,1.238C396.62,130.85,396.064,130.329,396.064,129.611z"/>
				<path style="fill:#263238;" d="M400.137,129.611c0-0.716,0.556-1.219,1.219-1.219c0.645,0,1.183,0.502,1.183,1.219
					c0,0.718-0.538,1.238-1.183,1.238C400.692,130.85,400.137,130.329,400.137,129.611z"/>
				<path style="fill:#263238;" d="M404.208,129.611c0-0.716,0.556-1.219,1.219-1.219c0.645,0,1.183,0.502,1.183,1.219
					c0,0.718-0.538,1.238-1.183,1.238C404.764,130.85,404.208,130.329,404.208,129.611z"/>
			</g>
			<g>
				<g>
					<path style="fill:#455A64;" d="M546.505,145.707c0,0.202-39.616,0.366-88.472,0.366c-48.874,0-88.481-0.164-88.481-0.366
						s39.607-0.366,88.481-0.366C506.889,145.341,546.505,145.505,546.505,145.707z"/>
				</g>
			</g>
			<g>
				<g>
					<path style="fill:#263238;" d="M575.403,146.23c0,0.202-3.806,0.366-8.5,0.366c-4.696,0-8.501-0.164-8.501-0.366
						c0-0.202,3.806-0.366,8.501-0.366C571.597,145.865,575.403,146.028,575.403,146.23z"/>
				</g>
			</g>
			<g>
				<g>
					<path style="fill:#263238;" d="M600.252,146.23c0,0.202-4.158,0.366-9.285,0.366c-5.129,0-9.286-0.164-9.286-0.366
						c0-0.202,4.157-0.366,9.286-0.366C596.094,145.865,600.252,146.028,600.252,146.23z"/>
				</g>
			</g>
			<g>
				<g>
					<path style="fill:#455A64;" d="M482.228,160.617c0,0.202-25.18,0.366-56.234,0.366c-31.065,0-56.239-0.164-56.239-0.366
						c0-0.202,25.175-0.366,56.239-0.366C457.048,160.251,482.228,160.414,482.228,160.617z"/>
				</g>
			</g>
			<g>
				<g>
					<path style="fill:#455A64;" d="M481.424,216.249c0,0.202-25.18,0.366-56.234,0.366c-31.065,0-56.239-0.164-56.239-0.366
						c0-0.202,25.175-0.366,56.239-0.366C456.244,215.883,481.424,216.047,481.424,216.249z"/>
				</g>
			</g>
			<g>
				<g>
					<path style="fill:#263238;" d="M523.09,160.617c0,0.202-6.851,0.366-15.301,0.366c-8.453,0-15.302-0.164-15.302-0.366
						c0-0.202,6.85-0.366,15.302-0.366C516.239,160.251,523.09,160.414,523.09,160.617z"/>
				</g>
			</g>
			<g>
				<g>
					<path style="fill:#263238;" d="M522.77,216.249c0,0.202-6.851,0.366-15.301,0.366c-8.452,0-15.302-0.164-15.302-0.366
						c0-0.202,6.85-0.366,15.302-0.366C515.918,215.883,522.77,216.047,522.77,216.249z"/>
				</g>
			</g>
			<g>
				<g>
					<path style="fill:#FF725E;" d="M377.137,168.202c0,0.202-1.698,0.366-3.793,0.366c-2.095,0-3.793-0.164-3.793-0.366
						c0-0.202,1.698-0.366,3.793-0.366C375.438,167.836,377.137,168,377.137,168.202z"/>
				</g>
			</g>
			<g>
				<g>
					<path style="fill:#263238;" d="M403.293,168.359c0,0.202-3.689,0.366-8.239,0.366c-4.551,0-8.24-0.164-8.24-0.366
						s3.688-0.366,8.24-0.366C399.604,167.993,403.293,168.157,403.293,168.359z"/>
				</g>
			</g>
			<g>
				<g>
					<path style="fill:#263238;" d="M420.033,168.359c0,0.202-3.162,0.366-7.062,0.366c-3.901,0-7.063-0.164-7.063-0.366
						s3.161-0.366,7.063-0.366C416.871,167.993,420.033,168.157,420.033,168.359z"/>
				</g>
			</g>
			<g>
				<g>
					<path style="fill:#263238;" d="M441.22,168.359c0,0.202-3.221,0.366-7.193,0.366c-3.973,0-7.193-0.164-7.193-0.366
						s3.22-0.366,7.193-0.366C437.999,167.993,441.22,168.157,441.22,168.359z"/>
				</g>
			</g>
			<g>
				<g>
					<path style="fill:#263238;" d="M459.791,168.359c0,0.202-2.928,0.366-6.539,0.366c-3.612,0-6.539-0.164-6.539-0.366
						s2.927-0.366,6.539-0.366C456.863,167.993,459.791,168.157,459.791,168.359z"/>
				</g>
			</g>
			<g>
				<g>
					<path style="fill:#263238;" d="M521.259,168.359c0,0.202-12.883,0.366-28.771,0.366c-15.894,0-28.774-0.164-28.774-0.366
						s12.88-0.366,28.774-0.366C508.376,167.993,521.259,168.157,521.259,168.359z"/>
				</g>
			</g>
			<g>
				<g>
					<path style="fill:#FF725E;" d="M376.09,177.88c0,0.202-1.464,0.366-3.269,0.366c-1.806,0-3.27-0.164-3.27-0.366
						s1.464-0.366,3.27-0.366C374.626,177.514,376.09,177.678,376.09,177.88z"/>
				</g>
			</g>
			<g>
				<g>
					<path style="fill:#FF725E;" d="M376.352,187.819c0,0.202-1.523,0.366-3.4,0.366c-1.878,0-3.401-0.164-3.401-0.366
						c0-0.202,1.522-0.366,3.401-0.366C374.829,187.453,376.352,187.617,376.352,187.819z"/>
				</g>
			</g>
			<g>
				<g>
					<path style="fill:#FF725E;" d="M376.352,199.066c0,0.202-1.523,0.366-3.4,0.366c-1.878,0-3.401-0.164-3.401-0.366
						c0-0.202,1.522-0.366,3.401-0.366C374.829,198.701,376.352,198.864,376.352,199.066z"/>
				</g>
			</g>
			<g>
				<g>
					<path style="fill:#263238;" d="M438.343,198.543c0,0.202-11.36,0.366-25.371,0.366c-14.015,0-25.373-0.164-25.373-0.366
						s11.358-0.366,25.373-0.366C426.983,198.177,438.343,198.341,438.343,198.543z"/>
				</g>
			</g>
			<g>
				<g>
					<path style="fill:#263238;" d="M433.896,187.819c0,0.202-10.833,0.366-24.193,0.366c-13.365,0-24.196-0.164-24.196-0.366
						c0-0.202,10.831-0.366,24.196-0.366C423.063,187.453,433.896,187.617,433.896,187.819z"/>
				</g>
			</g>
			<g>
				<g>
					<path style="fill:#263238;" d="M550.816,177.357c0,0.202-36.891,0.366-82.389,0.366c-45.513,0-82.397-0.164-82.397-0.366
						s36.884-0.366,82.397-0.366C513.924,176.991,550.816,177.154,550.816,177.357z"/>
				</g>
			</g>
		</g>
	</g>
	<g>
		<g>
			<polygon style="fill:#FAFAFA;" points="632.503,143.996 632.503,285.037 610.574,303.335 632.503,303.335 634.657,303.335 
				725.26,303.335 725.26,143.996 			"/>
			<g>
				<path style="fill:#263238;" d="M632.503,143.996c0,0,0.542-0.014,1.621-0.021c1.09-0.005,2.695-0.012,4.796-0.022
					c4.234-0.011,10.46-0.028,18.467-0.049c16.067-0.025,39.274-0.061,67.873-0.105l0.196,0l0,0.197
					c0.017,42.571,0.039,98.173,0.064,159.338l0,0.26h-0.26c-5.104,0-10.574,0-16.083,0c-34.929-0.007-68.297-0.013-98.603-0.018
					l-0.669,0l0.513-0.428c7.578-6.317,14.901-12.422,21.937-18.287l-0.082,0.176c0.048-42.168,0.088-77.45,0.116-102.201
					c0.026-12.345,0.046-22.062,0.06-28.703c0.012-3.303,0.021-5.839,0.027-7.56c0.006-0.846,0.01-1.49,0.013-1.933
					C632.495,144.209,632.503,143.996,632.503,143.996s0.009,0.23,0.013,0.671c0.003,0.448,0.007,1.1,0.013,1.958
					c0.006,1.731,0.015,4.282,0.027,7.604c0.014,6.653,0.034,16.387,0.06,28.754c0.028,24.715,0.068,59.946,0.116,102.054l0,0.107
					l-0.082,0.069c-7.031,5.872-14.348,11.983-21.921,18.307l-0.155-0.428c30.306-0.006,63.674-0.012,98.603-0.018
					c5.509,0,10.979,0,16.083,0l-0.26,0.26c0.024-61.165,0.047-116.767,0.064-159.338l0.196,0.196
					c-28.548-0.044-51.714-0.08-67.752-0.105c-8.026-0.021-14.266-0.038-18.511-0.049c-2.117-0.009-3.734-0.017-4.832-0.021
					C633.073,144.01,632.503,143.996,632.503,143.996z"/>
			</g>
		</g>
		<g>
			<g>
				<path style="fill:#263238;" d="M640.927,151.014c0,1.038-0.841,1.879-1.879,1.879c-1.038,0-1.879-0.841-1.879-1.879
					c0-1.038,0.841-1.879,1.879-1.879C640.086,149.134,640.927,149.976,640.927,151.014z"/>
				<path style="fill:#263238;" d="M647.729,151.014c0,1.038-0.841,1.879-1.879,1.879c-1.038,0-1.879-0.841-1.879-1.879
					c0-1.038,0.841-1.879,1.879-1.879C646.887,149.134,647.729,149.976,647.729,151.014z"/>
				<path style="fill:#263238;" d="M654.53,151.014c0,1.038-0.841,1.879-1.879,1.879c-1.038,0-1.879-0.841-1.879-1.879
					c0-1.038,0.841-1.879,1.879-1.879C653.689,149.134,654.53,149.976,654.53,151.014z"/>
			</g>
			<g>
				<g>
					<g>
						<path style="fill:#FF725E;" d="M699.764,194.47c0,0.166-11.759,0.301-26.262,0.301c-14.508,0-26.265-0.135-26.265-0.301
							c0-0.166,11.757-0.301,26.265-0.301C688.005,194.169,699.764,194.304,699.764,194.47z"/>
					</g>
				</g>
				<g>
					<g>
						<path style="fill:#FF725E;" d="M710.717,207.228c0,0.166-14.311,0.301-31.96,0.301c-17.656,0-31.964-0.135-31.964-0.301
							c0-0.166,14.308-0.301,31.964-0.301C696.406,206.927,710.717,207.062,710.717,207.228z"/>
					</g>
				</g>
				<g>
					<g>
						<path style="fill:#FF725E;" d="M713.319,254.832c0,0.166-15.259,0.301-34.078,0.301c-18.825,0-34.081-0.135-34.081-0.301
							c0-0.166,15.256-0.301,34.081-0.301C698.06,254.532,713.319,254.666,713.319,254.832z"/>
					</g>
				</g>
				<g>
					<g>
						<path style="fill:#FF725E;" d="M652.165,213.719c0,0.166-1.453,0.301-3.245,0.301c-1.793,0-3.245-0.135-3.245-0.301
							c0-0.166,1.453-0.301,3.245-0.301C650.712,213.418,652.165,213.553,652.165,213.719z"/>
					</g>
				</g>
				<g>
					<g>
						<path style="fill:#FF725E;" d="M674.547,213.853c0,0.166-3.157,0.301-7.05,0.301c-3.895,0-7.051-0.135-7.051-0.301
							c0-0.166,3.156-0.301,7.051-0.301C671.39,213.552,674.547,213.687,674.547,213.853z"/>
					</g>
				</g>
				<g>
					<g>
						<path style="fill:#FF725E;" d="M688.871,213.853c0,0.166-2.706,0.301-6.043,0.301c-3.338,0-6.043-0.135-6.043-0.301
							c0-0.166,2.705-0.301,6.043-0.301C686.165,213.552,688.871,213.687,688.871,213.853z"/>
					</g>
				</g>
				<g>
					<g>
						<path style="fill:#FF725E;" d="M651.269,222c0,0.166-1.253,0.301-2.798,0.301c-1.545,0-2.798-0.135-2.798-0.301
							c0-0.166,1.252-0.301,2.798-0.301C650.017,221.699,651.269,221.834,651.269,222z"/>
					</g>
				</g>
				<g>
					<g>
						<path style="fill:#FF725E;" d="M651.493,230.505c0,0.166-1.303,0.301-2.909,0.301c-1.607,0-2.91-0.135-2.91-0.301
							c0-0.166,1.302-0.301,2.91-0.301C650.19,230.205,651.493,230.339,651.493,230.505z"/>
					</g>
				</g>
				<g>
					<g>
						<path style="fill:#FF725E;" d="M651.493,240.13c0,0.166-1.303,0.301-2.909,0.301c-1.607,0-2.91-0.135-2.91-0.301
							c0-0.166,1.302-0.301,2.91-0.301C650.19,239.829,651.493,239.964,651.493,240.13z"/>
					</g>
				</g>
				<g>
					<g>
						<path style="fill:#FF725E;" d="M704.539,239.682c0,0.166-9.721,0.301-21.71,0.301c-11.993,0-21.712-0.135-21.712-0.301
							c0-0.166,9.719-0.301,21.712-0.301C694.818,239.381,704.539,239.516,704.539,239.682z"/>
					</g>
				</g>
				<g>
					<g>
						<path style="fill:#FF725E;" d="M700.734,230.505c0,0.166-9.27,0.301-20.702,0.301c-11.436,0-20.704-0.135-20.704-0.301
							c0-0.166,9.268-0.301,20.704-0.301C691.464,230.205,700.734,230.339,700.734,230.505z"/>
					</g>
				</g>
				<g>
					<g>
						<path style="fill:#FF725E;" d="M655.731,267.541c0,0.166-1.303,0.301-2.909,0.301c-1.607,0-2.91-0.135-2.91-0.301
							c0-0.166,1.302-0.301,2.91-0.301C654.428,267.24,655.731,267.375,655.731,267.541z"/>
					</g>
				</g>
				<g>
					<g>
						<path style="fill:#FF725E;" d="M655.731,277.165c0,0.166-1.303,0.301-2.909,0.301c-1.607,0-2.91-0.135-2.91-0.301
							c0-0.166,1.302-0.301,2.91-0.301C654.428,276.865,655.731,276.999,655.731,277.165z"/>
					</g>
				</g>
				<g>
					<g>
						<path style="fill:#FF725E;" d="M708.777,276.718c0,0.166-9.721,0.301-21.71,0.301c-11.993,0-21.712-0.135-21.712-0.301
							c0-0.166,9.719-0.301,21.712-0.301C699.056,276.417,708.777,276.552,708.777,276.718z"/>
					</g>
				</g>
				<g>
					<g>
						<path style="fill:#FF725E;" d="M704.972,267.541c0,0.166-9.27,0.301-20.702,0.301c-11.437,0-20.705-0.135-20.705-0.301
							c0-0.166,9.268-0.301,20.705-0.301C695.702,267.24,704.972,267.375,704.972,267.541z"/>
					</g>
				</g>
				<g>
					<g>
						<path style="fill:#FF725E;" d="M716.129,221.552c0,0.166-12.616,0.301-28.176,0.301c-15.565,0-28.178-0.135-28.178-0.301
							c0-0.166,12.614-0.301,28.178-0.301C703.513,221.252,716.129,221.387,716.129,221.552z"/>
					</g>
				</g>
				<g>
					<g>
						<path style="fill:#263238;" d="M724.388,158.377c0,0.166-20.368,0.301-45.487,0.301c-25.128,0-45.491-0.134-45.491-0.301
							c0-0.166,20.363-0.301,45.491-0.301C704.021,158.077,724.388,158.212,724.388,158.377z"/>
					</g>
				</g>
				<g>
					<g>
						<path style="fill:#FF725E;" d="M666.426,186.776c0,0.166-4.302,0.301-9.607,0.301c-5.307,0-9.608-0.135-9.608-0.301
							c0-0.166,4.301-0.301,9.608-0.301C662.125,186.475,666.426,186.61,666.426,186.776z"/>
					</g>
				</g>
				<g>
					<g>
						<path style="fill:#FF725E;" d="M655.55,169.374c0,0.166-2.029,0.301-4.531,0.301c-2.503,0-4.532-0.135-4.532-0.301
							c0-0.166,2.029-0.301,4.532-0.301C653.521,169.074,655.55,169.208,655.55,169.374z"/>
					</g>
				</g>
			</g>
		</g>
	</g>
</g>
<g id="Character">
	<g>
		<g>
			<g>
				<g>
					<g>
						<path style="fill:#FF725E;" d="M575.272,374.761l20.141-19.913l-35.919-61.509c-3.74-4.277-8.474-7.57-13.785-9.588
							l-12.65-4.808l-31.446-5.769l-22.327,8.792c-5.644,2.223-9.08,7.971-8.365,13.995l5.84,49.162l3.44,64.013l81.129-14.072
							l-8.163-23.677l0.274-36.914L575.272,374.761z"/>
						<g>
							<g>
								<g>
									<g>
										<path style="fill:#263238;" d="M553.913,369.816c0.19-0.001,0.239-12.79,0.11-28.559
											c-0.129-15.775-0.387-28.558-0.577-28.557c-0.19,0.002-0.239,12.787-0.109,28.562
											C553.465,357.032,553.724,369.818,553.913,369.816z"/>
									</g>
								</g>
							</g>
						</g>
					</g>
					<g>
						<g>
							<path style="fill:#FF725E;" d="M550.942,379.199l-49.021-19.734c-3.954-1.592-6.661-5.289-6.986-9.539l-3.587-46.999
								c0,0,0.424-19.989-12.061-20.962l-7.103,2.797c-9.18,4.875-11.454,18.241-10.204,28.559
								c1.775,14.663,2.515,35.413,4.502,48.138c1.625,10.409,7.876,18.644,17.776,22.248l60.379,13.071L550.942,379.199z"/>
						</g>
					</g>
					<g>
						<g>
							<g>
								<path style="fill:#263238;" d="M492.05,310.097c0.023-0.002,0.075,0.369,0.154,1.076c0.078,0.766,0.183,1.798,0.315,3.097
									c0.251,2.755,0.603,6.633,1.037,11.398c0.415,4.834,0.907,10.559,1.453,16.91c0.134,1.592,0.271,3.223,0.411,4.888
									c0.146,1.667,0.247,3.373,0.626,5.029c0.359,1.662,1.158,3.219,2.437,4.404c1.271,1.19,2.863,2.06,4.523,2.814
									c13.517,5.849,25.975,10.679,35.019,14.066c4.489,1.654,8.142,2.999,10.736,3.955c1.224,0.452,2.197,0.81,2.919,1.077
									c0.665,0.252,1.011,0.395,1.004,0.416c-0.007,0.021-0.368-0.08-1.047-0.291c-0.732-0.238-1.719-0.558-2.961-0.961
									c-2.566-0.85-6.264-2.124-10.812-3.761c-9.096-3.28-21.574-8.038-35.131-13.904c-1.686-0.767-3.341-1.665-4.699-2.937
									c-1.371-1.265-2.25-2.997-2.613-4.732c-0.392-1.739-0.484-3.458-0.624-5.119c-0.132-1.667-0.262-3.298-0.389-4.891
									c-0.493-6.357-0.938-12.087-1.314-16.925c-0.346-4.773-0.628-8.657-0.829-11.416c-0.081-1.303-0.145-2.338-0.192-3.106
									C492.036,310.472,492.027,310.098,492.05,310.097z"/>
							</g>
						</g>
					</g>
					<g>
						<g>
							<g>
								<path style="fill:#263238;" d="M463.964,335.647c0.023-0.001,0.054,0.216,0.097,0.631c0.044,0.49,0.097,1.089,0.162,1.814
									c0.146,1.675,0.342,3.929,0.581,6.669c0.268,2.813,0.61,6.16,1.098,9.861c0.504,3.694,1.099,7.768,2.214,11.906
									c0.528,2.089,1.269,4.019,2.392,5.676c1.124,1.671,2.372,3.171,3.662,4.499c2.592,2.651,5.359,4.595,7.844,5.885
									c5.016,2.607,8.661,2.645,8.61,2.819c-0.002,0.023-0.221,0.017-0.638-0.015c-0.417-0.029-1.034-0.077-1.814-0.234
									c-1.563-0.276-3.811-0.889-6.369-2.157c-2.554-1.259-5.4-3.198-8.064-5.874c-1.326-1.342-2.608-2.863-3.764-4.564
									c-1.173-1.707-1.969-3.77-2.492-5.861c-1.131-4.2-1.707-8.289-2.181-12.003c-0.457-3.718-0.751-7.077-0.961-9.899
									c-0.206-2.823-0.316-5.111-0.374-6.693c-0.016-0.729-0.029-1.33-0.039-1.823
									C463.928,335.868,463.942,335.648,463.964,335.647z"/>
							</g>
						</g>
					</g>
					<g>
						<g>
							<g>
								<path style="fill:#263238;" d="M484.926,368.535c-0.067-0.018,0.142-1.067,0.892-2.612c0.742-1.542,2.116-3.536,4.116-5.25
									c2.007-1.707,4.192-2.752,5.83-3.244c1.644-0.5,2.712-0.541,2.72-0.473c0.02,0.11-1.009,0.314-2.568,0.911
									c-1.557,0.59-3.621,1.659-5.557,3.305c-1.927,1.654-3.306,3.525-4.133,4.971
									C485.394,367.587,485.031,368.572,484.926,368.535z"/>
							</g>
						</g>
					</g>
					<g style="opacity:0.3;">
						<g>
							<g>
								<path d="M536.854,373.597c-5.242-2.961-10.371-5.236-15.851-7.727c-5.481-2.491-10.849-5.688-14.436-10.523
									c-6.765-9.118-5.995-22.279-12.919-31.277c0.452,6.051,0.904,12.101,1.357,18.152c0.414,5.546-0.435,11.029,3.137,14.798
									c3.009,3.175,8.876,5.609,13.03,6.979C519.518,366.753,528.507,370.843,536.854,373.597"/>
							</g>
						</g>
					</g>
				</g>
			</g>
			<polygon style="opacity:0.3;" points="553.454,316.162 557.694,342.319 553.68,334.91 			"/>
			<g>
				<path style="fill:#455A64;" d="M490.572,300.024c-0.001,0.036-0.405,0.065-1.136,0.087c-0.842,0.021-1.874,0.047-3.092,0.078
					c-2.61,0.065-6.212,0.197-10.182,0.48c-3.971,0.286-7.556,0.669-10.148,0.977c-1.209,0.143-2.235,0.264-3.071,0.363
					c-0.726,0.082-1.131,0.111-1.137,0.076c-0.006-0.035,0.388-0.132,1.105-0.276c0.717-0.146,1.76-0.328,3.053-0.528
					c2.585-0.402,6.176-0.844,10.161-1.131c3.983-0.284,7.601-0.358,10.217-0.329c1.308,0.014,2.366,0.045,3.097,0.087
					C490.169,299.949,490.572,299.988,490.572,300.024z"/>
			</g>
			<g>
				<path style="fill:#455A64;" d="M491.966,325.056c0.012,0.143-6.414,0.792-14.35,1.448c-7.939,0.656-14.383,1.072-14.395,0.929
					c-0.012-0.143,6.413-0.791,14.352-1.448C485.509,325.329,491.954,324.913,491.966,325.056z"/>
			</g>
			<g>
				<path style="fill:#455A64;" d="M494.329,351.371c0.016,0.032-0.347,0.238-1.017,0.581c-0.667,0.349-1.657,0.807-2.897,1.331
					c-2.479,1.05-6.008,2.284-10.025,3.187c-4.02,0.896-7.738,1.285-10.429,1.392c-1.346,0.055-2.436,0.063-3.188,0.031
					c-0.753-0.025-1.168-0.057-1.167-0.092c0-0.036,0.416-0.073,1.165-0.11c0.749-0.031,1.833-0.094,3.168-0.196
					c2.671-0.2,6.35-0.644,10.337-1.533c3.985-0.896,7.501-2.063,10.002-3.021c1.251-0.477,2.259-0.882,2.95-1.173
					C493.921,351.482,494.313,351.339,494.329,351.371z"/>
			</g>
			<g>
				<path style="fill:#455A64;" d="M511.758,364.866c0.084,0.147-2.554,1.316-4.859,3.902c-2.339,2.557-3.233,5.3-3.387,5.232
					c-0.058-0.018,0.083-0.724,0.54-1.79c0.454-1.064,1.27-2.469,2.46-3.79c1.193-1.318,2.507-2.273,3.519-2.833
					C511.046,365.023,511.734,364.81,511.758,364.866z"/>
			</g>
			<g>
				<path style="fill:#455A64;" d="M529.488,382.194c-0.128-0.029,0.443-2.472,1.925-5.161c1.468-2.698,3.219-4.494,3.313-4.402
					c0.121,0.1-1.42,2.011-2.856,4.652C530.419,379.914,529.638,382.241,529.488,382.194z"/>
			</g>
			<g>
				<path style="fill:#455A64;" d="M501.548,285.303c0.026,0.142-3.078,0.821-6.932,1.518c-3.855,0.697-7,1.147-7.025,1.005
					c-0.025-0.141,3.078-0.821,6.933-1.518C498.377,285.612,501.522,285.162,501.548,285.303z"/>
			</g>
			<g>
				<path style="fill:#455A64;" d="M548.476,287.439c-0.017,0.143-4.321-0.251-9.612-0.879c-5.293-0.628-9.569-1.253-9.552-1.396
					c0.017-0.143,4.32,0.251,9.613,0.879C544.217,286.671,548.493,287.296,548.476,287.439z"/>
			</g>
			<g>
				<path style="fill:#455A64;" d="M552.484,309.264c0,0.018-0.212,0.031-0.614,0.04c-0.458,0.004-1.041,0.008-1.759,0.014
					c-1.595-0.002-3.788-0.005-6.468-0.008c-5.461-0.005-13.004,0.041-21.331,0.254c-8.33,0.216-15.866,0.557-21.319,0.842
					c-2.676,0.141-4.866,0.256-6.458,0.34c-0.718,0.031-1.3,0.057-1.757,0.077c-0.402,0.012-0.614,0.009-0.615-0.009
					c-0.001-0.018,0.208-0.051,0.608-0.096c0.456-0.045,1.036-0.103,1.751-0.174c1.521-0.143,3.725-0.317,6.451-0.506
					c5.451-0.379,12.991-0.78,21.328-0.996c8.335-0.212,15.885-0.2,21.348-0.101c2.732,0.049,4.942,0.109,6.468,0.174
					c0.718,0.034,1.3,0.062,1.758,0.084C552.273,309.225,552.484,309.246,552.484,309.264z"/>
			</g>
			<g>
				<path style="fill:#455A64;" d="M553.058,336.905c0.009,0.143-12.851,1.107-28.722,2.152
					c-15.876,1.045-28.749,1.776-28.759,1.632c-0.009-0.143,12.849-1.107,28.725-2.152
					C540.173,337.493,553.049,336.762,553.058,336.905z"/>
			</g>
			<g>
				<path style="fill:#455A64;" d="M551.692,361.255c0.011,0.034-0.374,0.197-1.082,0.462c-0.707,0.267-1.74,0.626-3.025,1.045
					c-2.568,0.84-6.154,1.892-10.164,2.858c-4.012,0.963-7.685,1.655-10.354,2.075c-1.335,0.21-2.418,0.361-3.169,0.444
					c-0.751,0.085-1.168,0.116-1.174,0.08c-0.005-0.035,0.402-0.133,1.142-0.28c0.849-0.164,1.897-0.367,3.137-0.606
					c2.648-0.511,6.296-1.258,10.296-2.218c3.998-0.963,7.587-1.956,10.178-2.704c1.213-0.35,2.239-0.646,3.07-0.886
					C551.273,361.319,551.68,361.221,551.692,361.255z"/>
			</g>
			<g>
				<path style="fill:#455A64;" d="M572.261,317.116c0.036,0.139-4.145,1.341-9.338,2.684c-5.195,1.343-9.433,2.319-9.469,2.179
					c-0.036-0.139,4.144-1.34,9.339-2.684C567.985,317.953,572.225,316.977,572.261,317.116z"/>
			</g>
			<g>
				<path style="fill:#455A64;" d="M562.453,298.432c0.026,0.142-1.828,0.593-4.138,1.009c-2.311,0.416-4.205,0.638-4.231,0.497
					c-0.026-0.141,1.827-0.593,4.138-1.009C560.534,298.513,562.428,298.291,562.453,298.432z"/>
			</g>
			<g>
				<path style="fill:#263238;" d="M492.196,304.232c-0.101,0.018-0.254-1.661-1.169-4.175c-0.895-2.499-2.712-5.827-5.744-8.552
					c-3.034-2.725-6.536-4.178-9.117-4.801c-2.598-0.642-4.282-0.615-4.275-0.718c0-0.031,0.418-0.065,1.175-0.044
					c0.757,0.019,1.854,0.123,3.183,0.403c2.646,0.541,6.266,1.974,9.381,4.772c3.113,2.798,4.924,6.245,5.743,8.818
					c0.42,1.292,0.641,2.372,0.74,3.122C492.216,303.809,492.227,304.228,492.196,304.232z"/>
			</g>
			<g>
				<path style="fill:#263238;" d="M550.604,290.898c0.142-0.023,0.915,4.071,1.727,9.143c0.812,5.074,1.355,9.204,1.213,9.226
					c-0.142,0.023-0.915-4.07-1.727-9.144C551.005,295.052,550.462,290.921,550.604,290.898z"/>
			</g>
		</g>
		<g>
			<g>
				<g>
					<g>
						<path style="fill:#FF725E;" d="M605.241,438.286c0,0,37.679,10.428,39.191,10.96c2.27,0.799,1.889,9.115-1.644,8.986
							c-1.671-0.061-28.941,1.016-32.387,0.8c-3.446-0.216-13.841-4.312-13.841-4.312L605.241,438.286z"/>
					</g>
				</g>
			</g>
			<g>
				<g>
					<g>
						<g>
							<path style="fill:#263238;" d="M620.937,452.664c0.189,0.026,0.444-1.967,1.66-4.046c1.186-2.097,2.782-3.317,2.664-3.468
								c-0.066-0.145-1.937,0.917-3.211,3.154C620.756,450.527,620.778,452.68,620.937,452.664z"/>
						</g>
					</g>
				</g>
			</g>
			<g>
				<g>
					<g>
						<g>
							<path style="fill:#263238;" d="M617.008,450.882c0.185,0.032,0.566-1.749,1.569-3.717c0.984-1.979,2.188-3.346,2.052-3.475
								c-0.104-0.123-1.576,1.109-2.615,3.191C616.961,448.956,616.847,450.872,617.008,450.882z"/>
						</g>
					</g>
				</g>
			</g>
			<g>
				<g>
					<g>
						<g>
							<path style="fill:#263238;" d="M613.324,449.895c0.19-0.012,0.045-1.894,0.881-3.981c0.801-2.101,2.184-3.386,2.052-3.524
								c-0.075-0.143-1.765,1.022-2.639,3.294C612.719,447.947,613.171,449.949,613.324,449.895z"/>
						</g>
					</g>
				</g>
			</g>
			<g>
				<g>
					<g>
						<g>
							<path style="fill:#263238;" d="M613.992,445.029c0.067,0.017,0.401-1.035,0.404-2.804c-0.003-0.881-0.104-1.935-0.382-3.072
								c-0.138-0.569-0.324-1.156-0.561-1.749c-0.122-0.299-0.261-0.643-0.604-0.923c-0.351-0.316-0.991-0.25-1.294,0.064
								c-0.345,0.301-0.455,0.725-0.502,1.065c-0.038,0.346-0.057,0.669-0.049,0.995c0.009,0.648,0.093,1.27,0.233,1.844
								c0.278,1.151,0.727,2.116,1.16,2.88c0.878,1.529,1.639,2.311,1.693,2.268c0.086-0.06-0.545-0.938-1.297-2.475
								c-0.37-0.769-0.757-1.713-0.988-2.801c-0.116-0.543-0.181-1.123-0.182-1.722c0.017-0.579,0.009-1.303,0.347-1.581
								c0.18-0.149,0.341-0.159,0.498-0.042c0.166,0.127,0.306,0.385,0.413,0.658c0.233,0.563,0.423,1.121,0.571,1.663
								c0.297,1.083,0.44,2.091,0.498,2.942C614.061,443.947,613.889,445.013,613.992,445.029z"/>
						</g>
					</g>
				</g>
			</g>
			<g>
				<g>
					<g>
						<g>
							<path style="fill:#263238;" d="M613.945,444.645c0.017-0.069-0.892-0.382-2.43-0.392c-0.765-0.001-1.684,0.079-2.673,0.328
								c-0.488,0.132-1.012,0.258-1.54,0.567c-0.516,0.262-1.056,0.978-0.851,1.722c0.161,0.701,0.762,1.191,1.357,1.345
								c0.6,0.168,1.181,0.108,1.69-0.004c1.034-0.238,1.838-0.746,2.448-1.204c1.208-0.947,1.797-1.672,1.752-1.725
								c-0.066-0.08-0.78,0.54-2.007,1.359c-0.617,0.394-1.391,0.821-2.311,1c-0.458,0.087-0.951,0.115-1.397-0.019
								c-0.443-0.122-0.812-0.46-0.917-0.896c-0.108-0.421,0.147-0.806,0.56-1.051c0.404-0.25,0.903-0.394,1.367-0.533
								c0.932-0.266,1.804-0.389,2.539-0.443C613.005,444.595,613.93,444.746,613.945,444.645z"/>
						</g>
					</g>
				</g>
			</g>
			<g>
				<g>
					<g>
						<g>
							<path style="fill:#263238;" d="M626.727,453.067c0.186-0.021,0.002-1.632,0.743-3.398c0.705-1.782,1.963-2.804,1.845-2.95
								c-0.062-0.154-1.638,0.739-2.429,2.712C626.072,451.393,626.574,453.134,626.727,453.067z"/>
						</g>
					</g>
				</g>
			</g>
			<g>
				<g>
					<g>
						<g>
							<path style="fill:#263238;" d="M600.435,454.806c-0.017,0.04,0.501,0.282,1.457,0.686c0.968,0.366,2.385,0.878,4.193,1.299
								c3.604,0.908,8.741,1.423,14.385,1.363c5.647-0.062,10.735-0.319,14.425-0.467c1.747-0.093,3.21-0.17,4.366-0.231
								c1.03-0.069,1.6-0.127,1.598-0.171c-0.001-0.044-0.573-0.068-1.606-0.075c-1.157,0.008-2.623,0.018-4.372,0.031
								c-3.817,0.075-8.849,0.173-14.415,0.282c-5.619,0.059-10.694-0.381-14.284-1.167
								C602.582,455.616,600.479,454.69,600.435,454.806z"/>
						</g>
					</g>
				</g>
			</g>
			<g>
				<g>
					<g>
						<g>
							<path style="fill:#263238;" d="M599.321,455.665c0.051,0.087,1.082-0.516,2.823-1.279c1.72-0.738,4.299-1.623,7.13-1.185
								c2.84,0.435,4.852,2.342,6.163,3.666c1.321,1.371,2.095,2.282,2.171,2.218c0.057-0.047-0.586-1.048-1.844-2.52
								c-0.636-0.728-1.443-1.572-2.498-2.336c-1.044-0.767-2.388-1.42-3.893-1.65c-3.037-0.465-5.714,0.55-7.417,1.404
								C600.227,454.866,599.283,455.603,599.321,455.665z"/>
						</g>
					</g>
				</g>
			</g>
		</g>
		<g>
			<g>
				<g>
					<g>
						<path style="fill:#FF725E;" d="M560.646,429.54c0,0-35.655,23.345-36.934,24.311c-1.92,1.451,0.282,8.359,3.608,7.163
							c1.574-0.566,31.492-8.889,34.71-10.141c3.217-1.252,11.878-8.312,11.878-8.312L560.646,429.54z"/>
					</g>
				</g>
			</g>
			<g>
				<g>
					<g>
						<g>
							<path style="fill:#263238;" d="M550.058,448.005c0.156-0.033-0.477-2.09-2.385-3.816c-1.892-1.745-3.998-2.188-4.017-2.03
								c-0.066,0.179,1.824,0.858,3.592,2.495C549.037,446.265,549.885,448.087,550.058,448.005z"/>
						</g>
					</g>
				</g>
			</g>
			<g>
				<g>
					<g>
						<g>
							<path style="fill:#263238;" d="M553.26,445.115c0.151-0.059-0.539-1.85-2.174-3.507c-1.623-1.669-3.399-2.396-3.461-2.246
								c-0.09,0.164,1.472,1.101,3.01,2.688C552.189,443.62,553.094,445.201,553.26,445.115z"/>
						</g>
					</g>
				</g>
			</g>
			<g>
				<g>
					<g>
						<g>
							<path style="fill:#263238;" d="M556.471,443.055c0.162,0.005-0.016-2.039-1.558-3.922c-1.523-1.9-3.487-2.496-3.515-2.337
								c-0.084,0.171,1.624,0.975,3.025,2.734C555.853,441.264,556.286,443.101,556.471,443.055z"/>
						</g>
					</g>
				</g>
			</g>
			<g>
				<g>
					<g>
						<g>
							<path style="fill:#263238;" d="M554.356,438.621c0.094-0.046-0.394-1.01-0.807-2.668c-0.202-0.829-0.372-1.833-0.419-2.955
								c-0.024-0.561-0.013-1.15,0.039-1.757c0.019-0.293,0.074-0.581,0.193-0.753c0.114-0.159,0.271-0.199,0.488-0.112
								c0.407,0.162,0.619,0.855,0.811,1.401c0.181,0.57,0.295,1.142,0.35,1.695c0.11,1.107,0.029,2.124-0.091,2.969
								c-0.25,1.693-0.585,2.721-0.484,2.752c0.064,0.024,0.551-0.952,0.924-2.675c0.18-0.86,0.314-1.916,0.23-3.097
								c-0.041-0.589-0.15-1.207-0.339-1.828c-0.092-0.314-0.207-0.615-0.349-0.934c-0.148-0.31-0.381-0.681-0.802-0.863
								c-0.384-0.207-1.013-0.075-1.252,0.332c-0.241,0.371-0.269,0.741-0.294,1.063c-0.045,0.636-0.045,1.253-0.003,1.837
								c0.081,1.168,0.305,2.203,0.57,3.043C553.659,437.756,554.297,438.657,554.356,438.621z"/>
						</g>
					</g>
				</g>
			</g>
			<g>
				<g>
					<g>
						<g>
							<path style="fill:#263238;" d="M554.284,438.241c0.046,0.092,0.881-0.333,2.317-0.682c0.717-0.171,1.585-0.319,2.554-0.349
								c0.484-0.008,1.004-0.023,1.464,0.092c0.467,0.108,0.828,0.398,0.853,0.832c0.032,0.447-0.217,0.881-0.602,1.132
								c-0.384,0.264-0.862,0.387-1.326,0.443c-0.931,0.109-1.797-0.063-2.506-0.251c-1.418-0.408-2.286-0.782-2.325-0.685
								c-0.027,0.064,0.755,0.575,2.193,1.111c0.72,0.25,1.641,0.491,2.698,0.403c0.519-0.048,1.091-0.167,1.612-0.509
								c0.521-0.327,0.944-0.977,0.885-1.694c-0.031-0.771-0.763-1.289-1.334-1.382c-0.596-0.134-1.134-0.096-1.639-0.073
								c-1.018,0.064-1.918,0.266-2.647,0.5C555.018,437.607,554.247,438.181,554.284,438.241z"/>
						</g>
					</g>
				</g>
			</g>
			<g>
				<g>
					<g>
						<g>
							<path style="fill:#263238;" d="M531.864,459.711c0.041,0.056,0.6-0.361,0.872-1.382c0.299-0.996,0.111-2.528-0.668-3.869
								c-0.372-0.677-0.8-1.263-1.195-1.78c-0.389-0.518-0.793-0.986-1.21-1.299c-0.412-0.321-0.843-0.466-1.139-0.477
								c-0.298-0.013-0.45,0.061-0.446,0.097c0.001,0.098,0.637,0.051,1.297,0.72c0.335,0.319,0.667,0.766,1.029,1.3
								c0.365,0.53,0.763,1.107,1.111,1.741c0.722,1.257,0.938,2.558,0.784,3.477C532.17,459.163,531.78,459.65,531.864,459.711z"/>
						</g>
					</g>
				</g>
			</g>
			<g>
				<g>
					<g>
						<g>
							<path style="fill:#263238;" d="M544.664,450.147c0.165,0.017,0.115-1.793-1.256-3.416c-1.353-1.639-3.125-2.011-3.138-1.846
								c-0.069,0.175,1.44,0.767,2.654,2.25C544.167,448.593,544.48,450.184,544.664,450.147z"/>
						</g>
					</g>
				</g>
			</g>
			<g>
				<g>
					<g>
						<g>
							<path style="fill:#263238;" d="M570.242,443.82c-0.031-0.037-0.577,0.365-1.567,1.075c-1.003,0.694-2.476,1.666-4.396,2.694
								c-1.918,1.029-4.285,2.098-6.983,3.108c-2.7,1.007-5.728,1.956-8.93,2.885c-6.414,1.847-12.222,3.535-16.411,4.796
								c-2.009,0.617-3.677,1.129-4.954,1.521c-1.166,0.373-1.805,0.599-1.793,0.641c0.012,0.042,0.674-0.104,1.861-0.405
								c1.292-0.342,2.978-0.79,5.009-1.328c4.223-1.151,10.045-2.771,16.466-4.619c3.209-0.93,6.25-1.902,8.96-2.947
								c2.709-1.048,5.082-2.17,6.992-3.261c1.912-1.089,3.362-2.128,4.327-2.887C569.774,444.316,570.267,443.849,570.242,443.82z"
								/>
						</g>
					</g>
				</g>
			</g>
			<g>
				<g>
					<g>
						<g>
							<path style="fill:#263238;" d="M571.564,444.3c0.018-0.071-1.105-0.486-3.021-0.804c-1.882-0.296-4.74-0.45-7.493,0.915
								c-1.364,0.676-2.446,1.706-3.208,2.754c-0.774,1.049-1.286,2.098-1.671,2.984c-0.751,1.785-1.06,2.934-0.991,2.961
								c0.092,0.038,0.553-1.065,1.395-2.773c0.847-1.66,2.185-4.088,4.759-5.365c2.564-1.277,5.29-1.217,7.153-1.036
								C570.376,444.137,571.542,444.398,571.564,444.3z"/>
						</g>
					</g>
				</g>
			</g>
		</g>
		<g>
			<g>
				<g>
					<g>
						<path style="fill:#263238;" d="M634.766,371.158c0,0,10.696,3.819,10.741,15.813c0.086,22.974-46.419,48.297-46.419,48.297
							l-61.887-41.005l-3.879-1.569C533.323,392.694,616.865,361.312,634.766,371.158z"/>
					</g>
				</g>
			</g>
			<g>
				<g>
					<g>
						<g>
							<path style="fill:#455A64;" d="M568.551,414.974c0.027,0.035,0.599-0.356,1.612-1.093c1.015-0.735,2.462-1.826,4.233-3.196
								c3.544-2.739,8.364-6.62,13.55-11.071c5.186-4.455,9.753-8.634,12.996-11.722c1.622-1.544,2.919-2.809,3.799-3.7
								c0.882-0.89,1.354-1.396,1.324-1.428c-0.03-0.032-0.56,0.415-1.493,1.25c-1.011,0.913-2.336,2.109-3.933,3.551
								c-3.318,3.002-7.925,7.122-13.103,11.571c-5.179,4.445-9.948,8.375-13.417,11.201c-1.668,1.361-3.05,2.49-4.106,3.352
								C569.046,414.483,568.524,414.94,568.551,414.974z"/>
						</g>
					</g>
				</g>
			</g>
			<g>
				<g>
					<g>
						<g>
							<path style="fill:#455A64;" d="M617.295,379.745c0.023-0.154-2.737-0.424-5.964,0.541c-3.234,0.941-5.405,2.667-5.302,2.784
								c0.103,0.164,2.359-1.274,5.481-2.179C614.623,379.956,617.298,379.938,617.295,379.745z"/>
						</g>
					</g>
				</g>
			</g>
			<g>
				<g>
					<g>
						<g>
							<path style="fill:#455A64;" d="M611.965,376.124c-0.055-0.149-2.039,0.723-3.669,2.759c-1.648,2.022-2.083,4.145-1.926,4.168
								c0.18,0.063,0.857-1.865,2.416-3.772C610.321,377.354,612.064,376.287,611.965,376.124z"/>
						</g>
					</g>
				</g>
			</g>
			<g>
				<g>
					<g>
						<g>
							<path style="fill:#263238;" d="M638.169,448.867c0.033-0.072-0.738-0.221-1.595,0.484c-0.843,0.673-1.559,2.021-1.789,3.592
								c-0.233,1.583,0.12,3.037,0.564,3.961c0.438,0.94,0.92,1.381,0.974,1.337c0.085-0.058-0.254-0.581-0.56-1.503
								c-0.315-0.911-0.567-2.255-0.354-3.706c0.212-1.443,0.804-2.691,1.464-3.35C637.53,448.994,638.182,448.967,638.169,448.867z
								"/>
						</g>
					</g>
				</g>
			</g>
		</g>
		<g>
			<g>
				<g>
					<g>
						<path style="fill:#E0E0E0;" d="M630.342,338.526l-17.606,47.428c-1.006,2.71-3.607,4.494-6.497,4.455l-96.914-1.276v-7.364
							l35.962,1.313l15.269-47.342c0.516-1.6,2.007-2.683,3.689-2.678l62.516,0.181C629.48,333.252,631.34,335.995,630.342,338.526z
							"/>
						<g>
							<path style="fill:#263238;" d="M630.342,338.526c0,0,0.012-0.051,0.041-0.149c0.023-0.1,0.088-0.241,0.121-0.441
								c0.089-0.391,0.155-1.012-0.039-1.781c-0.203-0.753-0.704-1.68-1.702-2.292c-0.49-0.304-1.094-0.516-1.76-0.556
								c-0.667-0.031-1.391-0.008-2.152-0.015c-6.112-0.007-14.981-0.017-26.081-0.031c-5.556-0.01-11.67-0.022-18.273-0.034
								c-3.303-0.007-6.728-0.014-10.267-0.022c-1.77-0.004-3.568-0.008-5.394-0.012c-0.916-0.046-1.81,0.07-2.58,0.567
								c-0.759,0.477-1.346,1.229-1.604,2.109c-4.611,14.316-9.74,30.24-15.221,47.26l-0.035,0.11l-0.115-0.004
								c-11.468-0.418-23.549-0.857-35.962-1.309l0.162-0.156c0,0.414,0,0.864,0,1.314c0,2.072,0,4.136,0,6.05l-0.154-0.156
								c21.68,0.29,42.263,0.566,60.945,0.816c9.339,0.128,18.203,0.25,26.492,0.363c2.072,0.029,4.108,0.057,6.106,0.085
								c0.999,0.014,1.989,0.028,2.969,0.041c0.976,0.041,1.929-0.075,2.818-0.411c1.774-0.652,3.21-2.056,3.883-3.739
								c0.645-1.723,1.276-3.409,1.892-5.055c4.912-13.173,8.879-23.81,11.623-31.17c1.373-3.661,2.438-6.504,3.167-8.448
								C629.946,339.532,630.342,338.526,630.342,338.526s-0.357,1.021-1.065,2.956c-0.716,1.949-1.764,4.798-3.113,8.469
								c-2.723,7.368-6.658,18.016-11.531,31.203c-0.614,1.649-1.242,3.338-1.885,5.065c-0.693,1.742-2.175,3.197-4.011,3.875
								c-0.913,0.35-1.921,0.471-2.903,0.431c-0.98-0.012-1.97-0.024-2.969-0.037c-1.998-0.025-4.034-0.05-6.106-0.076
								c-8.288-0.104-17.153-0.216-26.492-0.334c-18.682-0.242-39.265-0.508-60.945-0.789l-0.154-0.002v-0.154
								c0-1.914,0-3.978,0-6.05c0-0.45,0-0.9,0-1.314v-0.162l0.162,0.006c12.413,0.455,24.493,0.897,35.962,1.317l-0.15,0.105
								c5.495-17.015,10.637-32.936,15.26-47.248c0.274-0.929,0.906-1.742,1.717-2.249c0.805-0.531,1.821-0.654,2.718-0.603
								c1.826,0.007,3.624,0.013,5.394,0.019c3.539,0.013,6.964,0.026,10.267,0.038c6.604,0.026,12.717,0.05,18.273,0.072
								c11.1,0.051,19.97,0.092,26.081,0.12c0.763,0.011,1.479-0.007,2.157,0.028c0.681,0.045,1.298,0.266,1.796,0.581
								c1.014,0.632,1.514,1.581,1.712,2.346c0.188,0.782,0.112,1.408,0.013,1.8C630.428,338.336,630.342,338.526,630.342,338.526z"
								/>
						</g>
					</g>
				</g>
			</g>
			<g>
				<g>
					<path style="fill:#FFFFFF;" d="M587.367,356.46c1.257-0.852,3.58-0.51,4.711,0.503c1.131,1.014,1.497,2.768,0.922,4.174
						c-0.575,1.406-2.023,2.391-3.539,2.472c-1.611,0.086-3.291-0.922-3.741-2.471C585.269,359.589,585.769,357.277,587.367,356.46"
						/>
				</g>
			</g>
		</g>
		<g>
			<g>
				<g>
					<g>
						<path style="fill:#263238;" d="M609.524,437.851c0,0-87.341-55.945-91.197-58.14c-3.28-1.867-12.055-7.27-20.707-4.883
							c-8.652,2.387-16.41,10.144-20.289,21.482c-2.216,6.477-3.263,17.53-3.754,25.817c-0.587,9.91,2.481,19.79,8.963,27.309
							c2.949,3.421,6.587,6.398,10.902,7.74c0.91,0.283,1.855,0.528,2.826,0.738c16.532,3.584,33.521-3.837,42.81-17.975l2.04-3.105
							c0,0,57.199,21.014,58.094,20.716L609.524,437.851z"/>
					</g>
				</g>
			</g>
			<g>
				<path style="fill:#455A64;" d="M522.836,382.81c-0.005,0.007-0.08-0.036-0.219-0.128c-0.163-0.111-0.364-0.249-0.611-0.417
					c-0.535-0.37-1.322-0.916-2.36-1.582c-2.073-1.322-5.141-3.207-9.276-4.713c-2.065-0.736-4.42-1.331-6.986-1.473
					c-2.562-0.109-5.336,0.273-8.035,1.311c-2.706,1.014-5.332,2.628-7.721,4.684c-1.195,1.025-2.351,2.153-3.428,3.367
					c-1.065,1.22-2.006,2.585-2.836,4.035c-1.66,2.904-2.888,5.965-3.768,8.998c-0.823,3.046-1.482,6.058-2.109,8.9
					c-1.246,5.698-1.919,10.919-2.011,15.324c-0.07,4.406,0.373,7.961,0.794,10.387c0.191,1.219,0.408,2.152,0.539,2.789
					c0.058,0.294,0.105,0.532,0.143,0.726c0.029,0.164,0.04,0.25,0.031,0.252c-0.009,0.002-0.037-0.079-0.083-0.239
					c-0.052-0.191-0.115-0.426-0.193-0.715c-0.164-0.63-0.414-1.558-0.637-2.776c-0.484-2.423-0.986-5.993-0.963-10.429
					c0.045-4.434,0.685-9.697,1.909-15.417c0.619-2.864,1.261-5.849,2.088-8.942c0.884-3.071,2.121-6.166,3.807-9.117
					c0.844-1.473,1.803-2.864,2.897-4.116c1.102-1.239,2.269-2.373,3.487-3.414c2.431-2.083,5.113-3.721,7.884-4.745
					c2.764-1.048,5.605-1.424,8.225-1.293c2.624,0.165,5.009,0.792,7.089,1.558c4.164,1.568,7.216,3.512,9.262,4.89
					c1.024,0.694,1.795,1.269,2.31,1.666c0.235,0.186,0.426,0.337,0.581,0.46C522.778,382.745,522.841,382.802,522.836,382.81z"/>
			</g>
			<g>
				<g>
					<g>
						<g>
							<path style="fill:#455A64;" d="M501.348,422.064c0,0,0.159,0.081,0.48,0.212c0.346,0.137,0.821,0.326,1.431,0.568
								c1.29,0.497,3.152,1.214,5.543,2.134c4.863,1.832,11.879,4.475,20.601,7.761c8.751,3.265,19.233,7.147,30.993,11.427
								c11.763,4.275,24.796,8.968,38.716,13.681l0.253,0.086l0.124-0.237c2.185-4.173,4.491-8.577,6.831-13.046
								c1.193-2.279,2.377-4.541,3.482-6.653l0.134-0.257l-0.242-0.154c-26.256-16.667-49.746-31.579-66.698-42.34
								c-8.464-5.339-15.295-9.648-20.035-12.637c-2.347-1.465-4.175-2.606-5.441-3.396c-0.607-0.371-1.079-0.66-1.421-0.869
								c-0.322-0.193-0.494-0.278-0.494-0.278s0.151,0.12,0.462,0.33c0.334,0.221,0.795,0.526,1.388,0.92
								c1.252,0.813,3.06,1.986,5.38,3.492c4.715,3.029,11.51,7.393,19.929,12.802c16.924,10.803,40.375,25.772,66.588,42.503
								l-0.108-0.41c-1.106,2.112-2.29,4.374-3.483,6.652c-2.339,4.469-4.643,8.874-6.827,13.048l0.376-0.151
								c-13.912-4.7-26.953-9.371-38.725-13.612c-11.753-4.278-22.253-8.099-31.038-11.296c-8.75-3.21-15.788-5.792-20.666-7.581
								c-2.408-0.876-4.283-1.558-5.582-2.031c-0.619-0.219-1.101-0.39-1.451-0.514
								C501.521,422.108,501.348,422.064,501.348,422.064z"/>
						</g>
					</g>
				</g>
			</g>
		</g>
		<g>
			<path style="fill:#FF725E;" d="M505.869,236.467c-1.525-2.996-3.061-6.024-3.881-9.285c-0.82-3.26-0.873-6.821,0.518-9.882
				c0.813-1.79,2.091-3.359,2.73-5.218c0.878-2.559,0.519-5.578,2.103-7.771c2.476-3.427,7.774-2.628,11.602-4.423
				c2.982-1.398,5.065-4.413,8.2-5.419c2.739-0.879,5.726-0.036,8.371,1.096c2.645,1.132,5.224,2.574,8.076,2.948
				c2.034,0.267,4.096-0.027,6.146,0.016c2.05,0.044,4.228,0.498,5.672,1.955c1.443,1.457,1.747,4.147,0.184,5.475
				c3.587-0.609,6.967,2.973,6.92,6.611c-0.047,3.638-2.788,6.841-6.097,8.354c-3.309,1.513-7.087,1.612-10.714,1.329
				c-10.27-0.8-20.588-4.704-27.58-12.269"/>
			<g>
				<g>
					<g>
						<g>
							<g>
								<g>
									<g>
										<g>
											<g>
												<g>
													<g>
														<g>
															<g>
																<g>
																	<g>
																		<g>
																			<path style="fill:#FFBE9D;" d="M508.083,223.617l-6.997,50.849c-1.19,8.647,5.099,16.53,13.794,17.292l0,0
																				c8.115,0.711,15.359-5.082,16.461-13.153c0.523-3.828,0.966-7.02,1.046-7.41c0,0,13.112,0.564,15.81-12.12
																				c1.303-6.129,2.961-18.972,4.325-30.608c1.466-12.497-6.927-24.02-19.266-26.485l-1.227-0.245
																				C518.647,199.867,509.582,210.188,508.083,223.617z"/>
																		</g>
																	</g>
																</g>
															</g>
														</g>
													</g>
												</g>
											</g>
										</g>
										<g>
											<g>
												<g>
													<g>
														<g>
															<g>
																<g>
																	<g>
																		<g>
																			<path style="fill:#EB996E;" d="M532.445,271.016c0,0-8.166-0.952-15.635-8.023c0,0,2.09,9.933,15.006,11.323
																				L532.445,271.016z"/>
																		</g>
																	</g>
																</g>
															</g>
														</g>
													</g>
												</g>
											</g>
										</g>
									</g>
								</g>
							</g>
							<g>
								<g>
									<g>
										<g>
											<g>
												<g>
													<g>
														<g>
															<g>
																<g>
																	<g>
																		<g>
																			<g>
																				<g>
																					<g>
																						<path style="fill:#263238;" d="M546.82,239.277c-0.157,0.966-1.105,1.628-2.117,1.482
																							c-1.009-0.146-1.702-1.045-1.544-2.011c0.158-0.965,1.105-1.63,2.115-1.484
																							C546.286,237.41,546.978,238.312,546.82,239.277z"/>
																					</g>
																				</g>
																			</g>
																		</g>
																	</g>
																</g>
															</g>
														</g>
													</g>
													<g>
														<g>
															<g>
																<g>
																	<g>
																		<g>
																			<g>
																				<g>
																					<g>
																						<g>
																							<path style="fill:#263238;" d="M548.544,234.162c-0.272,0.192-1.444-1.101-3.4-1.486
																								c-1.947-0.413-3.582,0.306-3.746,0.024c-0.083-0.127,0.232-0.508,0.947-0.838
																								c0.705-0.33,1.841-0.561,3.058-0.312c1.216,0.25,2.15,0.902,2.647,1.479
																								C548.558,233.609,548.676,234.078,548.544,234.162z"/>
																						</g>
																					</g>
																				</g>
																			</g>
																		</g>
																	</g>
																</g>
															</g>
														</g>
													</g>
												</g>
												<g>
													<g>
														<g>
															<g>
																<g>
																	<g>
																		<g>
																			<g>
																				<g>
																					<g>
																						<path style="fill:#263238;" d="M528.597,236.131c-0.158,0.966-1.105,1.628-2.117,1.482
																							c-1.01-0.146-1.702-1.045-1.544-2.011c0.158-0.965,1.106-1.629,2.115-1.484
																							C528.063,234.265,528.755,235.166,528.597,236.131z"/>
																					</g>
																				</g>
																			</g>
																		</g>
																	</g>
																</g>
															</g>
														</g>
													</g>
													<g>
														<g>
															<g>
																<g>
																	<g>
																		<g>
																			<g>
																				<g>
																					<g>
																						<g>
																							<path style="fill:#263238;" d="M529.265,230.689c-0.273,0.192-1.447-1.101-3.4-1.486
																								c-1.947-0.413-3.582,0.306-3.746,0.024c-0.083-0.127,0.23-0.508,0.947-0.838
																								c0.705-0.33,1.841-0.561,3.057-0.313c1.216,0.25,2.15,0.903,2.647,1.479
																								C529.277,230.136,529.397,230.605,529.265,230.689z"/>
																						</g>
																					</g>
																				</g>
																			</g>
																		</g>
																	</g>
																</g>
															</g>
														</g>
													</g>
												</g>
												<g>
													<g>
														<g>
															<g>
																<g>
																	<g>
																		<g>
																			<g>
																				<g>
																					<g>
																						<path style="fill:#263238;" d="M533.461,246.596c0.013-0.113,1.27-0.08,3.288,0.061
																							c0.509,0.048,1.001,0.043,1.154-0.28c0.19-0.337,0.088-0.917-0.038-1.545
																							c-0.228-1.301-0.466-2.665-0.716-4.094c-0.968-5.819-1.563-10.563-1.328-10.6
																							c0.235-0.037,1.21,4.649,2.178,10.468c0.227,1.433,0.445,2.798,0.65,4.105
																							c0.075,0.605,0.272,1.313-0.133,2.01c-0.209,0.346-0.629,0.544-0.966,0.566
																							c-0.339,0.034-0.621-0.017-0.871-0.051C534.677,246.945,533.446,246.708,533.461,246.596z"/>
																					</g>
																				</g>
																			</g>
																		</g>
																	</g>
																</g>
															</g>
														</g>
													</g>
												</g>
												<g>
													<g>
														<g>
															<g>
																<g>
																	<g>
																		<g>
																			<g>
																				<g>
																					<g>
																						<path style="fill:#263238;" d="M527.441,246.799c0.322,0.045-0.098,2.166,1.416,4.035
																							c1.51,1.872,3.819,2.086,3.776,2.386c0.003,0.139-0.586,0.311-1.545,0.147
																							c-0.942-0.155-2.249-0.729-3.176-1.872c-0.923-1.145-1.153-2.471-1.051-3.356
																							C526.956,247.235,527.298,246.757,527.441,246.799z"/>
																					</g>
																				</g>
																			</g>
																		</g>
																	</g>
																</g>
															</g>
														</g>
													</g>
												</g>
											</g>
										</g>
									</g>
									<g>
										<g>
											<g>
												<g>
													<g>
														<g>
															<g>
																<g>
																	<g>
																		<path style="fill:#FF725E;" d="M531.3,223.132c-0.299,0.493-2.2-0.149-4.547-0.33
																			c-2.344-0.229-4.327,0.073-4.536-0.464c-0.09-0.255,0.332-0.691,1.182-1.055c0.843-0.366,2.123-0.618,3.53-0.496
																			c1.406,0.125,2.623,0.595,3.39,1.101C531.093,222.395,531.433,222.897,531.3,223.132z"/>
																	</g>
																</g>
															</g>
														</g>
													</g>
												</g>
											</g>
										</g>
									</g>
									<g>
										<g>
											<g>
												<g>
													<g>
														<g>
															<g>
																<g>
																	<g>
																		<path style="fill:#FF725E;" d="M548.956,228.363c-0.432,0.375-1.686-0.355-3.301-0.7
																			c-1.602-0.402-3.049-0.299-3.271-0.826c-0.093-0.253,0.211-0.654,0.894-0.955c0.674-0.301,1.729-0.445,2.835-0.19
																			c1.105,0.257,1.988,0.852,2.461,1.419C549.054,227.682,549.151,228.177,548.956,228.363z"/>
																	</g>
																</g>
															</g>
														</g>
													</g>
												</g>
											</g>
										</g>
									</g>
								</g>
							</g>
						</g>
					</g>
				</g>
				<g>
					<g>
						<g>
							<g>
								<g>
									<g>
										<g>
											<g>
												<g>
													<g>
														<path style="fill:#FFBE9D;" d="M507.24,233.239c-0.198-0.137-8.22-4.33-9.679,4.419
															c-1.459,8.748,7.625,8.409,7.682,8.16C505.299,245.57,507.24,233.239,507.24,233.239z"/>
													</g>
												</g>
											</g>
										</g>
									</g>
								</g>
							</g>
						</g>
					</g>
					<g>
						<g>
							<g>
								<g>
									<g>
										<g>
											<g>
												<g>
													<g>
														<g>
															<path style="fill:#EB996E;" d="M503.123,242.058c-0.034-0.034-0.171,0.081-0.448,0.156
																c-0.27,0.073-0.715,0.08-1.143-0.167c-0.867-0.493-1.401-2.09-1.181-3.674c0.111-0.8,0.404-1.53,0.791-2.111
																c0.374-0.595,0.862-0.973,1.342-0.979c0.481-0.03,0.764,0.304,0.83,0.568c0.076,0.264-0.008,0.429,0.036,0.452
																c0.021,0.026,0.212-0.115,0.202-0.488c-0.007-0.18-0.075-0.403-0.253-0.605c-0.181-0.206-0.476-0.344-0.806-0.363
																c-0.682-0.066-1.393,0.453-1.818,1.091c-0.463,0.634-0.811,1.452-0.935,2.35c-0.238,1.772,0.389,3.572,1.593,4.149
																c0.589,0.263,1.133,0.163,1.432,0.001C503.072,242.267,503.151,242.079,503.123,242.058z"/>
														</g>
													</g>
												</g>
											</g>
										</g>
									</g>
								</g>
							</g>
						</g>
					</g>
				</g>
				<g>
					<g>
						<path style="fill:#FF725E;" d="M555.041,216.657c-1.502,3.233-9.22,4.481-14.878,2.774c-5.216-1.574-7.108-4.885-10.427-7.772
							c-2.101-1.827-2.101-1.827-5.526-2.181c-2.769-0.286-4.992,2.472-7.087,4.307c1.166,6.952-1.926,13.836-4.939,20.209
							c-0.333,0.704-0.714,1.459-1.413,1.803c-1.186,0.585-2.602-0.34-3.311-1.457c-1.135-1.788-1.268-4.021-1.226-6.139
							c0.096-4.824,0.942-9.674,2.901-14.083c1.959-4.409,5.072-8.365,9.145-10.951c5.091-3.231,11.505-4.154,17.398-2.881
							c5.894,1.273,11.246,4.65,15.253,9.156C552.791,211.531,554.409,213.932,555.041,216.657"/>
					</g>
				</g>
			</g>
			<g>
				<g>
					<g>
						<path style="fill:#263238;" d="M537.244,237.804c0.075,0.004,0.049-0.754,0.398-2.033c0.346-1.255,1.205-3.089,3.096-4.496
							c1.828-1.412,4.835-2.199,7.742-1.114c1.432,0.519,2.796,1.496,3.765,2.845c0.997,1.331,1.556,3.037,1.573,4.797
							c-0.017,1.76-0.576,3.467-1.573,4.799c-0.969,1.349-2.334,2.327-3.766,2.846c-2.907,1.085-5.914,0.297-7.743-1.115
							c-1.892-1.408-2.751-3.241-3.096-4.496C537.293,238.559,537.319,237.801,537.244,237.804c-0.025,0-0.039,0.186-0.044,0.544
							c-0.012,0.357,0.029,0.889,0.175,1.556c0.274,1.315,1.094,3.279,3.06,4.827c1.898,1.549,5.112,2.467,8.268,1.33
							c1.554-0.544,3.042-1.591,4.102-3.048c1.089-1.438,1.706-3.297,1.722-5.209c-0.016-1.911-0.634-3.77-1.723-5.207
							c-1.06-1.458-2.547-2.504-4.101-3.048c-3.156-1.137-6.369-0.22-8.267,1.329c-1.966,1.547-2.786,3.511-3.06,4.827
							c-0.146,0.667-0.187,1.199-0.175,1.556C537.205,237.618,537.22,237.804,537.244,237.804z"/>
					</g>
				</g>
				<g>
					<g>
						<path style="fill:#263238;" d="M516.494,234.181c0.075,0.004,0.049-0.754,0.398-2.033c0.346-1.255,1.205-3.089,3.097-4.496
							c1.828-1.412,4.835-2.199,7.742-1.114c1.432,0.519,2.797,1.497,3.765,2.846c0.997,1.331,1.556,3.037,1.573,4.797
							c-0.016,1.76-0.576,3.467-1.573,4.799c-0.969,1.35-2.334,2.327-3.766,2.846c-2.908,1.085-5.914,0.297-7.743-1.115
							c-1.892-1.408-2.751-3.241-3.096-4.496C516.543,234.935,516.569,234.177,516.494,234.181c-0.024,0-0.039,0.186-0.044,0.544
							c-0.012,0.357,0.029,0.889,0.175,1.556c0.274,1.315,1.094,3.279,3.06,4.827c1.898,1.549,5.112,2.467,8.268,1.329
							c1.554-0.544,3.042-1.591,4.102-3.049c1.089-1.438,1.707-3.297,1.722-5.209c-0.016-1.911-0.634-3.769-1.722-5.207
							c-1.06-1.458-2.547-2.504-4.101-3.048c-3.156-1.137-6.369-0.22-8.267,1.329c-1.966,1.547-2.786,3.511-3.06,4.827
							c-0.146,0.667-0.187,1.199-0.175,1.556C516.455,233.995,516.47,234.181,516.494,234.181z"/>
					</g>
				</g>
				<g>
					<g>
						<path style="fill:#263238;" d="M533.589,234.475c0.088,0.177,1.2-0.344,2.494,0.052c1.298,0.383,1.939,1.431,2.109,1.332
							c0.082-0.038,0.041-0.371-0.251-0.812c-0.285-0.436-0.859-0.958-1.654-1.198c-0.795-0.239-1.562-0.12-2.04,0.087
							C533.759,234.143,533.542,234.398,533.589,234.475z"/>
					</g>
				</g>
				<g>
					<g>
						<path style="fill:#263238;" d="M504.738,231.94c0.003,0.195,2.793,0.314,6.23,0.266c3.439-0.048,6.224-0.246,6.221-0.441
							c-0.003-0.195-2.792-0.314-6.231-0.266C507.52,231.547,504.735,231.745,504.738,231.94z"/>
					</g>
				</g>
			</g>
			<g>
				<path style="fill:#FFFFFF;" d="M559.125,208.308c0,0,0.025,0.308-0.135,0.834c-0.153,0.523-0.558,1.247-1.311,1.883
					c-0.74,0.647-1.857,1.146-3.146,1.288c-1.29,0.159-2.714,0.002-4.173-0.218c-2.929-0.431-5.548-1.01-7.423-1.499
					c-0.938-0.243-1.692-0.46-2.21-0.618c-0.211-0.067-0.407-0.13-0.594-0.19c-0.135-0.046-0.205-0.073-0.203-0.08
					c0.002-0.007,0.076,0.007,0.215,0.04c0.191,0.048,0.39,0.098,0.605,0.152c0.645,0.16,1.383,0.344,2.224,0.553
					c1.881,0.451,4.498,1.006,7.418,1.436c1.456,0.22,2.859,0.378,4.12,0.233c1.261-0.13,2.342-0.596,3.075-1.211
					c0.743-0.604,1.156-1.292,1.328-1.796C559.093,208.61,559.101,208.305,559.125,208.308z"/>
			</g>
			<g>
				<path style="fill:#FFFFFF;" d="M561.065,210.293c0,0-0.089,0.975-0.749,2.393c-0.644,1.405-1.964,3.23-4.026,4.465
					c-2.064,1.232-4.297,1.531-5.839,1.433c-1.561-0.089-2.462-0.473-2.462-0.473c0.005-0.017,0.237,0.041,0.66,0.125
					c0.422,0.085,1.041,0.176,1.808,0.2c1.523,0.059,3.706-0.259,5.727-1.465c2.017-1.208,3.331-2.981,4-4.351
					c0.342-0.688,0.555-1.276,0.68-1.688C560.989,210.521,561.048,210.289,561.065,210.293z"/>
			</g>
		</g>
	</g>
</g>
</svg>
